<svg id="Capa_1" enable-background="new 0 0 512 512" height="512" viewBox="0 0 512 512" width="512" xmlns="http://www.w3.org/2000/svg"><g><path d="m433.5 105h-315v-55c0-22.091 17.909-40 40-40h235c22.091 0 40 17.909 40 40z" fill="#ffda8f"/><path d="m393.5 502h-235c-22.091 0-40-17.909-40-40v-265.528c0-7.497 2.107-14.843 6.08-21.2l18.92-30.272h265l18.92 30.272c3.973 6.357 6.08 13.703 6.08 21.2v265.528c0 22.091-17.909 40-40 40z" fill="#cbf4fb"/><path d="m408.5 145h-265l-25-40h315z" fill="#ffce69"/><path d="m254 223.5h179.5v215h-179.5z" fill="#fff"/><path d="m305.312 379.188s-6.688-54.243 10.138-71.069 44.106-16.826 60.931 0c16.826 16.826 16.826 44.106 0 60.931-16.826 16.826-71.069 10.138-71.069 10.138z" fill="#97e0cd"/><path d="m158.5 397v32.5h-80v-32.5c0-22.091 17.909-40 40-40 22.091 0 40 17.909 40 40z" fill="#ff5c7d"/><path d="m158.5 429.5v32.5c0 22.091-17.909 40-40 40-22.091 0-40-17.909-40-40v-32.5z" fill="#fff"/><g><path d="m443.5 50c0-27.57-22.43-50-50-50h-235c-27.57 0-50 22.43-50 50 0 0 .009 55.059.01 55.089.016 1.812.515 3.618 1.51 5.21l21.687 34.7-15.607 24.971c-4.97 7.96-7.6 17.12-7.6 26.5v13.39c0 5.51 4.49 10 10 10 5.52 0 10-4.49 10-10 0-.01 0-.01 0-.02v-13.37c0-5.63 1.58-11.12 4.56-15.9l15.98-25.57h253.92l15.979 25.57c2.98 4.78 4.561 10.27 4.561 15.9v17.03h-169.5c-5.523 0-10 4.477-10 10v215c0 5.522 4.477 10 10 10h169.5v13.5c-.03 16.51-13.49 29.97-30 30h-235c-.009 0-.018-.001-.026-.001 6.292-8.362 10.026-18.752 10.026-29.999v-65c0-24.146-17.205-44.348-40-48.994v-48.146c0-5.52-4.49-10-10-10s-10 4.48-10 10v48.146c-22.795 4.646-40 24.847-40 48.994v65c0 27.57 22.43 50 50 50 7.104 0 13.86-1.499 19.986-4.181.186.081.367.171.554.25 6.16 2.61 12.71 3.931 19.46 3.931h235c6.75 0 13.3-1.32 19.46-3.931 5.96-2.52 11.3-6.13 15.89-10.72s8.2-9.93 10.72-15.89c2.601-6.16 3.931-12.71 3.931-19.46v-265.529c0-9.38-2.63-18.55-7.601-26.5l-15.607-24.97 21.687-34.7c.995-1.592 1.493-3.398 1.509-5.21.002-.03.011-55.09.011-55.09zm-355 347c0-16.542 13.458-30 30-30s30 13.458 30 30v22.5h-60zm0 65v-22.5h60v22.5c0 16.542-13.458 30-30 30s-30-13.458-30-30zm175.5-33.5v-195h159.5v195zm-135.5-378.5c0-16.542 13.458-30 30-30h235c16.542 0 30 13.458 30 30v45h-295zm20.542 85-12.5-20h278.915l-12.5 20z"/><circle cx="118.5" cy="254.86" r="10"/><path d="m393.333 273.333c0-5.523-4.478-10-10-10s-10 4.477-10 10c0 6.941-.845 13.082-2.234 18.527-20.105-10.823-45.765-7.767-62.721 9.188-8.971 8.971-13.649 24.881-14.303 48.64-.447 16.229 1.239 30.139 1.312 30.724.562 4.553 4.148 8.14 8.701 8.701.419.052 7.689.934 17.754 1.264 2.334.077 11.077.101 12.969.048 23.759-.654 39.669-5.333 48.641-14.304 19.163-19.163 20.569-49.445 4.248-70.258 3.42-9.027 5.633-19.787 5.633-32.53zm-24.023 88.646c-8.085 8.084-34.6 9.525-54.838 8.049-1.476-20.242-.035-46.754 8.049-54.838 10.973-10.973 27.798-12.605 40.519-4.91-8.631 13.065-19.679 18.173-20.51 18.542-5.044 2.181-7.386 8.029-5.232 13.092 1.618 3.805 5.317 6.088 9.207 6.088 1.305 0 2.632-.257 3.909-.8.986-.419 14.469-6.355 26.063-21.277 4.949 11.992 2.563 26.324-7.167 36.054z"/></g></g></svg>