<svg height="512" viewBox="0 0 512 512" width="512" xmlns="http://www.w3.org/2000/svg"><g id="Hair_Dye" data-name="Hair Dye"><g id="Flat"><path d="m448 208h-48a8 8 0 0 1 -7.972-8.665l16-192a8 8 0 0 1 7.972-7.335h16a8 8 0 0 1 7.972 7.335l16 192a8 8 0 0 1 -7.972 8.665z" fill="#f9d8cd"/><rect fill="#f4c2b5" height="48" rx="8" width="96" x="376" y="192"/><path d="m504 512h-160a8 8 0 0 1 -8-8v-224a8 8 0 0 1 1.854-5.122l40-48a8 8 0 0 1 6.146-2.878h80a8 8 0 0 1 6.146 2.878l40 48a8 8 0 0 1 1.854 5.122v224a8 8 0 0 1 -8 8z" fill="#ffe7de"/><path d="m510.146 274.878-31.82-38.178a128.1 128.1 0 0 1 -142.326 106.306v160.994a8 8 0 0 0 8 8h160a8 8 0 0 0 8-8v-224a8 8 0 0 0 -1.854-5.122z" fill="#f9d8cd"/><path d="m368 400h-192a8 8 0 0 1 -8-8 88.468 88.468 0 0 1 32.087-67.953 88.108 88.108 0 0 1 87.913-84.047h24a8 8 0 0 1 5.727 13.585c-.122.126-12.235 12.546-15.5 15.954-4.219 4.4-5.671 9.408-4.316 14.893 1.925 7.792 9.163 14.825 18.439 17.918a87.129 87.129 0 0 1 59.65 82.764v6.886a8 8 0 0 1 -8 8z" fill="#f48fb1"/><path d="m213.737 400h154.263a8 8 0 0 0 8-8v-6.886a87.1 87.1 0 0 0 -41.1-74.025 139.966 139.966 0 0 1 -121.243 72.9 8.049 8.049 0 0 0 -3.175.683c-7.901 3.514-5.394 15.328 3.255 15.328z" fill="#f06292"/><path d="m162.174 296a7.973 7.973 0 0 1 -5.657-2.343l-54.194-54.194a8 8 0 0 1 -.1-11.207l100.02-103.807a8 8 0 0 1 5.668-2.449 7.9 7.9 0 0 1 5.725 2.323l24 23.826 34 34a8 8 0 0 1 -.1 11.413l-103.807 100.194a7.976 7.976 0 0 1 -5.555 2.244z" fill="#e0e0e0"/><g fill="#bdbdbd"><path d="m240.028 220.855a7.974 7.974 0 0 1 -5.656-2.343l-14.6-14.6a8 8 0 0 1 11.317-11.312l14.6 14.6a8 8 0 0 1 -5.657 13.657zm-37.223-37.223a7.976 7.976 0 0 1 -5.657-2.343l-16.97-16.971a8 8 0 1 1 11.313-11.318l16.971 16.971a8 8 0 0 1 -5.657 13.657z"/><path d="m214.077 245.9a7.974 7.974 0 0 1 -5.657-2.343l-24-24a8 8 0 0 1 11.313-11.313l24 24a8 8 0 0 1 -5.656 13.656z"/><path d="m157.932 240.758a7.974 7.974 0 0 1 -5.657-2.343l-24-24a8 8 0 0 1 11.313-11.315l24 24a8 8 0 0 1 -5.656 13.656z"/></g><path d="m103.931 246.9a7.977 7.977 0 0 1 -5.657-2.344 85.435 85.435 0 0 1 -24.833-64.856 107.94 107.94 0 0 0 -31.42-81.913s-42.021-43.832-42.021-45.787v-52l75.925 72c21.618 21.618 51.478 24.875 81.95 23.268a85.419 85.419 0 0 1 64.85 24.833 8 8 0 0 1 0 11.314l-113.137 113.136a7.975 7.975 0 0 1 -5.657 2.349z" fill="#525252"/><path d="m200.073 103.915a159.752 159.752 0 0 1 -126.656 64.067 107.541 107.541 0 0 1 .024 11.72 85.435 85.435 0 0 0 24.833 64.849 8 8 0 0 0 11.314 0l113.137-113.136a8 8 0 0 0 0-11.314 85.023 85.023 0 0 0 -22.652-16.186z" fill="#3f3f3f"/><path d="m432 432a8 8 0 0 1 -8-8v-16a8.009 8.009 0 0 0 -8-8h-32a8 8 0 0 1 0-16h32a24.027 24.027 0 0 1 24 24v16a8 8 0 0 1 -8 8z" fill="#525252"/><path d="m248 352a69.162 69.162 0 0 1 -33.723-9.051 8 8 0 1 1 7.931-13.9 53.658 53.658 0 0 0 25.792 6.951 8 8 0 1 1 0 16z" fill="#f06292"/><path d="m213.577 281.113c.26.811.54 1.623.855 2.438 7.515 19.439 30.909 38.032 55.626 44.211a8 8 0 0 0 3.881-15.522c-19.729-4.932-38.9-19.746-44.583-34.459-2.239-5.79-2.165-10.89.23-15.526a88.647 88.647 0 0 0 -16.009 18.858z" fill="#f06292"/><circle cx="296" cy="360" fill="#ec407a" r="8"/><rect fill="#525252" height="48" rx="8" width="176" x="184" y="464"/><path d="m352 480h-160a40.045 40.045 0 0 1 -40-40v-48a8 8 0 0 1 8-8h224a8 8 0 0 1 8 8v48a40.045 40.045 0 0 1 -40 40z" fill="#eee"/><circle cx="172" cy="132" fill="#848484" r="12"/><circle cx="408" cy="296" fill="#fff5f2" r="8"/><circle cx="384" cy="272" fill="#fff5f2" r="16"/><circle cx="264" cy="272" fill="#f8bbd0" r="8"/><circle cx="416" cy="160" fill="#fff5f2" r="8"/><circle cx="136" cy="136" fill="#848484" r="8"/><path d="m384 384h-22.919a203.843 203.843 0 0 1 -170.413 95.966c.443.015.885.034 1.332.034h160a40.045 40.045 0 0 0 40-40v-48a8 8 0 0 0 -8-8z" fill="#e0e0e0"/><path d="m384 432h-168a8 8 0 0 1 0-16h168a8 8 0 0 1 0 16z" fill="#bdbdbd"/><path d="m184 432h-24a8 8 0 0 1 0-16h24a8 8 0 0 1 0 16z" fill="#bdbdbd"/></g></g></svg>