<?xml version="1.0" encoding="iso-8859-1"?>
<!-- Generator: Adobe Illustrator 19.0.0, SVG Export Plug-In . SVG Version: 6.00 Build 0)  -->
<svg version="1.1" id="Capa_1" xmlns="http://www.w3.org/2000/svg" xmlns:xlink="http://www.w3.org/1999/xlink" x="0px" y="0px"
	 viewBox="0 0 512 512" style="enable-background:new 0 0 512 512;" xml:space="preserve">
<path style="fill:#FFDAAA;" d="M444.546,420.936l-140.312-40.793v-45.872c25.36-16.021,42.206-44.298,42.206-76.513v-63.309H165.556
	v63.309c0,32.214,16.846,60.491,42.206,76.513v45.872L67.45,420.936c-16.935,5.144-28.512,20.761-28.512,38.461V512h434.12v-52.603
	C473.058,441.698,461.48,426.08,444.546,420.936z"/>
<path style="fill:#A88E65;" d="M346.44,194.449c0,0,0,35.264,0,53.26c0,33.246,27.048,60.294,60.294,60.294
	s60.294-27.048,60.294-60.294c0-17.996-7.935-34.164-20.477-45.221c12.542-11.057,20.477-27.225,20.477-45.221
	c0-33.246-27.048-60.294-60.294-60.294c-0.186,0-0.369,0.012-0.554,0.014c0.354-2.637,0.554-5.321,0.554-8.053
	c0-33.246-27.048-60.294-60.294-60.294c-13.703,0-26.346,4.602-36.482,12.332c-9.896-19.8-30.36-33.435-53.959-33.435
	s-44.063,13.636-53.959,33.435c-10.136-7.73-22.779-12.332-36.482-12.332c-33.246,0-60.294,27.048-60.294,60.294
	c0,2.732,0.2,5.416,0.554,8.053c-0.185-0.002-0.368-0.014-0.554-0.014c-33.246,0-60.294,27.048-60.294,60.294
	c0,17.996,7.935,34.164,20.477,45.221c-12.542,11.057-20.477,27.225-20.477,45.221c0,33.246,27.048,60.294,60.294,60.294
	s60.294-27.048,60.294-60.294c0-17.996,0-53.26,0-53.26H346.44z"/>
<rect x="165.556" y="194.449" style="fill:#FFC477;" width="180.883" height="19.093"/>
<circle style="fill:#FFC853;" cx="105.262" cy="157.268" r="30.147"/>
<path style="fill:#DBA34B;" d="M126.579,135.951c11.773,11.773,11.773,30.862,0,42.634c-11.773,11.773-30.862,11.773-42.634,0
	L126.579,135.951z"/>
<circle style="fill:#EA80FC;" cx="165.556" cy="88.934" r="30.147"/>
<path style="fill:#B667C9;" d="M186.873,67.617c11.773,11.773,11.773,30.862,0,42.634c-11.773,11.773-30.862,11.773-42.634,0
	L186.873,67.617z"/>
<circle style="fill:#FFC853;" cx="255.998" cy="67.831" r="30.147"/>
<path style="fill:#DBA34B;" d="M277.315,46.514c11.773,11.773,11.773,30.862,0,42.634s-30.862,11.773-42.634,0L277.315,46.514z"/>
<circle style="fill:#EA80FC;" cx="105.262" cy="247.71" r="30.147"/>
<path style="fill:#B667C9;" d="M126.579,226.392c11.773,11.773,11.773,30.862,0,42.634c-11.773,11.773-30.862,11.773-42.634,0
	L126.579,226.392z"/>
<circle style="fill:#FFC853;" cx="406.734" cy="157.268" r="30.147"/>
<path style="fill:#DBA34B;" d="M428.051,135.951c11.773,11.773,11.773,30.862,0,42.634c-11.773,11.773-30.862,11.773-42.634,0
	L428.051,135.951z"/>
<circle style="fill:#EA80FC;" cx="346.44" cy="88.934" r="30.147"/>
<path style="fill:#B667C9;" d="M367.757,67.617c11.773,11.773,11.773,30.862,0,42.634c-11.773,11.772-30.862,11.773-42.634,0
	L367.757,67.617z"/>
<circle style="fill:#EA80FC;" cx="406.734" cy="247.71" r="30.147"/>
<path style="fill:#B667C9;" d="M428.051,226.392c11.773,11.773,11.773,30.862,0,42.634c-11.773,11.773-30.862,11.773-42.634,0
	L428.051,226.392z"/>
<g>
	<path style="fill:#846F51;" d="M105.262,287.906c-29.832,0-54.659-21.783-59.446-50.275c-0.555,3.278-0.848,6.644-0.848,10.079
		c0,33.246,27.048,60.294,60.294,60.294s60.294-27.048,60.294-60.294c0-5.565,0-12.783,0-20.098
		C165.556,260.858,138.508,287.906,105.262,287.906z"/>
	<path style="fill:#846F51;" d="M346.44,174.351H165.556c0,0,0,8.933,0,20.098H346.44C346.44,183.284,346.44,174.351,346.44,174.351
		z"/>
	<path style="fill:#846F51;" d="M406.734,287.906c-33.246,0-60.294-27.048-60.294-60.294c0,7.315,0,14.533,0,20.098
		c0,33.246,27.048,60.294,60.294,60.294s60.294-27.048,60.294-60.294c0-3.434-0.293-6.8-0.848-10.079
		C461.393,266.122,436.566,287.906,406.734,287.906z"/>
</g>
<path style="fill:#FFC477;" d="M255.998,348.2c-17.735,0-34.274-5.109-48.236-13.929v22.934
	c14.584,7.103,30.952,11.093,48.236,11.093c17.283,0,33.651-3.991,48.236-11.093v-22.934
	C290.272,343.091,273.733,348.2,255.998,348.2L255.998,348.2z"/>
<rect x="188.167" y="144.204" width="15.074" height="50.245"/>
<rect x="218.314" y="144.204" width="15.074" height="50.245"/>
<rect x="248.461" y="144.204" width="15.074" height="50.245"/>
<rect x="278.608" y="144.204" width="15.074" height="50.245"/>
<rect x="308.756" y="144.204" width="15.074" height="50.245"/>
<path d="M105.262,119.584c-20.779,0-37.684,16.905-37.684,37.684s16.905,37.684,37.684,37.684s37.684-16.905,37.684-37.684
	S126.041,119.584,105.262,119.584z M105.262,134.658c3.217,0,6.277,0.68,9.05,1.896l-29.764,29.764
	c-1.216-2.774-1.896-5.832-1.896-9.05C82.652,144.801,92.795,134.658,105.262,134.658z M105.262,179.878
	c-3.752,0-7.29-0.924-10.408-2.548l30.47-30.47c1.624,3.118,2.548,6.656,2.548,10.408
	C127.872,169.735,117.729,179.878,105.262,179.878z"/>
<path d="M165.556,51.25c-20.779,0-37.684,16.905-37.684,37.684s16.905,37.684,37.684,37.684s37.684-16.905,37.684-37.684
	S186.336,51.25,165.556,51.25z M165.556,66.324c3.217,0,6.277,0.68,9.05,1.896l-29.764,29.764c-1.216-2.774-1.896-5.832-1.896-9.05
	C142.946,76.467,153.09,66.324,165.556,66.324z M165.556,111.545c-3.752,0-7.29-0.924-10.408-2.548l30.47-30.47
	c1.624,3.118,2.548,6.657,2.548,10.408C188.167,101.401,178.023,111.545,165.556,111.545z"/>
<path d="M255.998,105.515c20.779,0,37.684-16.905,37.684-37.684s-16.905-37.684-37.684-37.684s-37.684,16.905-37.684,37.684
	S235.219,105.515,255.998,105.515z M255.998,90.442c-3.752,0-7.29-0.924-10.408-2.548l30.47-30.47
	c1.624,3.118,2.548,6.657,2.548,10.408C278.608,80.298,268.465,90.442,255.998,90.442z M255.998,45.221
	c3.217,0,6.277,0.68,9.05,1.896l-29.764,29.764c-1.216-2.774-1.896-5.832-1.896-9.05C233.388,55.364,243.531,45.221,255.998,45.221z
	"/>
<path d="M105.262,210.026c-20.779,0-37.684,16.905-37.684,37.684s16.905,37.684,37.684,37.684s37.684-16.905,37.684-37.684
	S126.041,210.026,105.262,210.026z M105.262,225.099c3.217,0,6.277,0.68,9.05,1.896L84.548,256.76
	c-1.216-2.774-1.896-5.832-1.896-9.05C82.652,235.243,92.795,225.099,105.262,225.099z M105.262,270.32
	c-3.752,0-7.29-0.924-10.408-2.548l30.47-30.47c1.624,3.118,2.548,6.656,2.548,10.408
	C127.872,260.176,117.729,270.32,105.262,270.32z"/>
<path d="M369.05,157.268c0,20.779,16.905,37.684,37.684,37.684s37.684-16.905,37.684-37.684s-16.905-37.684-37.684-37.684
	S369.05,136.488,369.05,157.268z M406.734,179.878c-3.751,0-7.29-0.924-10.408-2.548l30.47-30.47
	c1.624,3.118,2.548,6.656,2.548,10.408C429.344,169.735,419.201,179.878,406.734,179.878z M406.734,134.658
	c3.217,0,6.277,0.68,9.05,1.896l-29.764,29.764c-1.216-2.774-1.896-5.832-1.896-9.05
	C384.124,144.801,394.267,134.658,406.734,134.658z"/>
<path d="M346.44,126.618c20.779,0,37.684-16.905,37.684-37.684S367.219,51.25,346.44,51.25s-37.684,16.905-37.684,37.684
	S325.66,126.618,346.44,126.618z M346.44,111.545c-3.751,0-7.29-0.924-10.408-2.548l30.47-30.47
	c1.624,3.118,2.548,6.657,2.548,10.408C369.05,101.401,358.906,111.545,346.44,111.545z M346.44,66.324
	c3.217,0,6.277,0.68,9.05,1.896l-29.764,29.764c-1.216-2.774-1.896-5.832-1.896-9.05C323.829,76.467,333.973,66.324,346.44,66.324z"
	/>
<path d="M406.734,210.026c-20.779,0-37.684,16.905-37.684,37.684s16.905,37.684,37.684,37.684s37.684-16.905,37.684-37.684
	S427.513,210.026,406.734,210.026z M406.734,225.099c3.217,0,6.277,0.68,9.05,1.896L386.02,256.76
	c-1.216-2.774-1.896-5.832-1.896-9.05C384.124,235.243,394.267,225.099,406.734,225.099z M406.734,270.32
	c-3.751,0-7.29-0.924-10.408-2.548l30.47-30.47c1.624,3.118,2.548,6.656,2.548,10.408
	C429.344,260.176,419.201,270.32,406.734,270.32z"/>
<path d="M446.65,413.699l-134.88-39.213v-36.219c18.255-12.685,32.011-31.409,38.347-53.26
	c12.147,18.379,32.984,30.534,56.616,30.534c37.403,0,67.831-30.429,67.831-67.831c0-16.747-6.236-32.835-17.331-45.221
	c11.094-12.385,17.331-28.474,17.331-45.221c0-34.857-26.43-63.658-60.301-67.416c0.005-0.308,0.007-0.612,0.007-0.917
	c0-37.403-30.429-67.831-67.831-67.831c-12.097,0-23.7,3.141-33.994,9.149C299.941,11.403,278.994,0,255.998,0
	c-22.996,0-43.943,11.403-56.448,30.252c-10.294-6.007-21.897-9.149-33.994-9.149c-37.403,0-67.831,30.429-67.831,67.831
	c0,0.305,0.002,0.61,0.007,0.917c-33.871,3.758-60.301,32.559-60.301,67.416c0,16.747,6.236,32.835,17.331,45.221
	c-11.094,12.385-17.331,28.474-17.331,45.221c0,37.403,30.429,67.831,67.831,67.831c23.631,0,44.469-12.155,56.616-30.534
	c6.336,21.851,20.091,40.574,38.347,53.26v36.219L65.26,413.725c-20.252,6.151-33.858,24.506-33.858,45.671V512h15.074v-52.604
	c0-14.482,9.31-27.04,23.08-31.222l145.745-42.373v-38.9c3.746,1.712,7.595,3.177,11.519,4.398c0.035,0.011,0.069,0.022,0.105,0.033
	c0.622,0.193,1.246,0.378,1.871,0.558c0.211,0.061,0.421,0.124,0.632,0.183c0.517,0.146,1.034,0.284,1.553,0.421
	c0.325,0.085,0.649,0.171,0.976,0.253c0.44,0.112,0.881,0.219,1.323,0.324c0.409,0.097,0.82,0.193,1.231,0.285
	c0.383,0.085,0.766,0.17,1.149,0.251c0.471,0.1,0.945,0.196,1.419,0.288c0.341,0.066,0.68,0.134,1.022,0.196
	c0.519,0.096,1.038,0.186,1.56,0.274c0.309,0.052,0.617,0.104,0.926,0.154c0.554,0.087,1.109,0.169,1.667,0.247
	c0.283,0.04,0.568,0.082,0.852,0.12c0.58,0.076,1.162,0.145,1.745,0.211c0.268,0.03,0.537,0.063,0.805,0.092
	c0.594,0.062,1.191,0.117,1.788,0.168c0.261,0.023,0.523,0.049,0.785,0.07c0.606,0.047,1.214,0.085,1.823,0.123
	c0.254,0.015,0.508,0.035,0.763,0.048c0.636,0.033,1.274,0.055,1.913,0.076c0.227,0.008,0.453,0.02,0.68,0.026
	c0.862,0.022,1.727,0.035,2.596,0.035c0.868,0,1.732-0.012,2.596-0.035c0.227-0.006,0.453-0.018,0.68-0.026
	c0.639-0.021,1.277-0.043,1.913-0.076c0.254-0.013,0.508-0.033,0.763-0.048c0.609-0.037,1.217-0.074,1.823-0.123
	c0.262-0.021,0.523-0.047,0.785-0.07c0.597-0.052,1.194-0.106,1.788-0.168c0.268-0.028,0.537-0.062,0.805-0.092
	c0.583-0.066,1.165-0.135,1.745-0.211c0.284-0.037,0.568-0.079,0.852-0.12c0.557-0.078,1.113-0.16,1.667-0.247
	c0.31-0.049,0.617-0.102,0.926-0.154c0.522-0.087,1.041-0.178,1.56-0.274c0.341-0.063,0.681-0.13,1.022-0.196
	c0.474-0.093,0.948-0.189,1.419-0.288c0.384-0.081,0.767-0.165,1.149-0.251c0.411-0.092,0.822-0.188,1.231-0.285
	c0.442-0.104,0.883-0.212,1.323-0.324c0.326-0.082,0.651-0.168,0.976-0.253c0.519-0.137,1.036-0.275,1.553-0.421
	c0.211-0.059,0.422-0.122,0.632-0.183c0.626-0.18,1.249-0.365,1.871-0.558c0.035-0.011,0.069-0.022,0.105-0.033
	c3.924-1.223,7.772-2.687,11.519-4.398v38.9l145.658,42.347c13.856,4.209,23.166,16.768,23.166,31.25V512h15.074v-52.604
	C480.595,438.231,466.988,419.876,446.65,413.699z M173.093,257.759V247.71v-66.324v-37.182H158.02v37.182v66.324
	c0,29.09-23.668,52.758-52.758,52.758S52.504,276.8,52.504,247.71c0-15.104,6.533-29.526,17.925-39.567l6.413-5.654l-6.413-5.654
	c-11.392-10.041-17.925-24.463-17.925-39.567c0-29.09,23.668-52.758,52.776-52.756c0.165,0.006,0.33,0.011,0.495,0.012l8.66,0.046
	l-1.151-8.584c-0.323-2.409-0.486-4.782-0.486-7.052c0-29.09,23.668-52.758,52.758-52.758c11.621,0,22.657,3.731,31.913,10.789
	l7.241,5.521l4.071-8.144c9.022-18.054,27.115-29.269,47.217-29.269s38.194,11.215,47.217,29.269l4.071,8.144l7.241-5.521
	c9.256-7.057,20.292-10.789,31.913-10.789c29.09,0,52.758,23.668,52.758,52.758c0,2.27-0.164,4.643-0.486,7.052l-1.151,8.584
	l8.66-0.046c0.166-0.001,0.331-0.006,0.513-0.014c29.09,0,52.758,23.668,52.758,52.758c0,15.104-6.533,29.526-17.925,39.567
	l-6.413,5.654l6.413,5.654c11.392,10.041,17.925,24.463,17.925,39.567c0,29.09-23.668,52.758-52.758,52.758
	s-52.758-23.668-52.758-52.758v-66.324v-37.182h-15.074v37.182v66.324v10.049c0,37.069-24.457,68.53-58.082,79.104
	c-0.154,0.048-0.307,0.094-0.462,0.143c-1.124,0.346-2.256,0.668-3.399,0.968c-0.125,0.032-0.247,0.068-0.372,0.1
	c-1.205,0.31-2.423,0.589-3.648,0.844c-0.268,0.055-0.539,0.105-0.808,0.158c-0.967,0.192-1.939,0.365-2.917,0.523
	c-0.328,0.052-0.655,0.109-0.984,0.157c-1.2,0.178-2.406,0.336-3.622,0.461c-0.214,0.022-0.428,0.036-0.642,0.056
	c-1.045,0.1-2.096,0.18-3.151,0.24c-0.346,0.02-0.691,0.039-1.038,0.054c-1.254,0.056-2.512,0.095-3.779,0.095
	c-1.267,0-2.526-0.039-3.779-0.095c-0.347-0.016-0.692-0.034-1.038-0.054c-1.056-0.061-2.107-0.141-3.151-0.24
	c-0.214-0.021-0.429-0.034-0.642-0.056c-1.216-0.126-2.422-0.283-3.622-0.461c-0.329-0.049-0.656-0.105-0.984-0.157
	c-0.978-0.157-1.951-0.331-2.917-0.523c-0.269-0.053-0.54-0.102-0.808-0.158c-1.226-0.255-2.443-0.535-3.648-0.844
	c-0.125-0.031-0.247-0.067-0.372-0.1c-1.143-0.298-2.276-0.621-3.399-0.968c-0.154-0.047-0.309-0.094-0.462-0.143
	C197.551,326.288,173.093,294.828,173.093,257.759z"/>
<g>
</g>
<g>
</g>
<g>
</g>
<g>
</g>
<g>
</g>
<g>
</g>
<g>
</g>
<g>
</g>
<g>
</g>
<g>
</g>
<g>
</g>
<g>
</g>
<g>
</g>
<g>
</g>
<g>
</g>
</svg>
