<svg height="512" viewBox="0 0 512 512" width="512" xmlns="http://www.w3.org/2000/svg"><g id="flat"><path d="m376 248h64v144a32 32 0 0 1 -32 32 32 32 0 0 1 -32-32z" fill="#eaeae8"/><rect fill="#cbcbcb" height="64" rx="16" width="32" x="376" y="296"/><path d="m248 120h208a32 32 0 0 1 32 32v64a32 32 0 0 1 -32 32h-208a0 0 0 0 1 0 0v-128a0 0 0 0 1 0 0z" fill="#eaeae8"/><path d="m248 120-40 16h-32v96h32l40 16z" fill="#cbcbcb"/><path d="m176 160h24a8 8 0 0 1 0 16h-24z" fill="#eaeae8"/><path d="m176 192h24a8 8 0 0 1 0 16h-24z" fill="#eaeae8"/><circle cx="392" cy="312" fill="#fbb540" r="16"/><circle cx="336" cy="184" fill="#6ee7f5" r="8"/><circle cx="367.796" cy="184" fill="#6ee7f5" r="10"/><circle cx="400.592" cy="184" fill="#6ee7f5" r="8"/><path d="m144 160h-72a40 40 0 1 1 34.644-60.006 8 8 0 0 1 -13.85 8.012 24 24 0 1 0 -20.794 35.994h72a8 8 0 0 1 0 16z" fill="#fbb540"/><path d="m72 288a40 40 0 0 1 0-80h72a8 8 0 0 1 0 16h-72a24 24 0 1 0 20.794 35.994 8 8 0 0 1 13.85 8.012 40.145 40.145 0 0 1 -34.644 19.994z" fill="#fbb540"/><path d="m72 192h-40a8 8 0 0 1 0-16h40a8 8 0 0 1 0 16z" fill="#fbb540"/><path d="m128 192h-24a8 8 0 0 1 0-16h24a8 8 0 0 1 0 16z" fill="#fbb540"/><g fill="#cbcbcb"><path d="m488 152v8h-24a8 8 0 0 1 0-16h22.99a32 32 0 0 1 1.01 8z"/><path d="m488 176v16h-24a8 8 0 0 1 0-16z"/><path d="m488 208v8a32 32 0 0 1 -1.01 8h-22.99a8 8 0 0 1 0-16z"/><path d="m376 248h64v8h-64z"/></g></g></svg>