<svg xmlns="http://www.w3.org/2000/svg" height="583pt" version="1.1" viewBox="0 0 583.6454 583" width="583pt">
<g id="surface1">
<path d="M 371.917969 397.980469 L 424.9375 477.511719 L 398.425781 557.042969 L 212.855469 371.46875 L 34.203125 117.402344 C 23.308594 101.0625 25.460938 79.300781 39.351562 65.410156 C 55.441406 49.320312 81.53125 49.320312 97.621094 65.410156 L 372.144531 344.730469 C 386.695312 359.535156 386.59375 383.300781 371.917969 397.980469 Z M 371.917969 397.980469 " style=" stroke:none;fill-rule:nonzero;fill:rgb(78.039216%,77.254902%,63.529412%);fill-opacity:1;" />
<path d="M 223.835938 329.429688 L 252.621094 300.644531 C 267.261719 286.003906 291 286.003906 305.640625 300.644531 C 320.28125 315.285156 320.28125 339.023438 305.640625 353.664062 L 276.855469 382.449219 C 262.214844 397.089844 238.476562 397.089844 223.835938 382.449219 C 209.195312 367.808594 209.195312 344.070312 223.835938 329.429688 Z M 223.835938 329.429688 " style=" stroke:none;fill-rule:nonzero;fill:rgb(70.980392%,67.843137%,51.764706%);fill-opacity:1;" />
<path d="M 464.703125 397.980469 C 413.457031 397.980469 371.917969 439.519531 371.917969 490.765625 C 371.917969 542.007812 413.457031 583.550781 464.703125 583.550781 C 515.945312 583.550781 557.488281 542.007812 557.488281 490.765625 C 557.488281 439.519531 515.945312 397.980469 464.703125 397.980469 Z M 464.703125 530.53125 C 442.738281 530.53125 424.9375 512.726562 424.9375 490.765625 C 424.9375 468.804688 442.742188 451 464.703125 451 C 486.664062 451 504.46875 468.804688 504.46875 490.765625 C 504.46875 512.726562 486.664062 530.53125 464.703125 530.53125 Z M 464.703125 530.53125 " style=" stroke:none;fill-rule:nonzero;fill:rgb(33.333333%,14.509804%,3.921569%);fill-opacity:1;" />
<path d="M 371.917969 490.765625 C 371.882812 542.007812 413.398438 583.578125 464.644531 583.609375 C 515.886719 583.640625 557.457031 542.128906 557.488281 490.882812 C 557.488281 490.84375 557.488281 490.804688 557.488281 490.765625 C 557.488281 490.722656 557.488281 490.675781 557.488281 490.632812 L 557.488281 489.875 C 557.488281 489.863281 557.488281 489.855469 557.488281 489.847656 L 557.484375 489.738281 L 557.484375 489.398438 L 557.480469 489.289062 L 557.480469 489.253906 L 557.476562 489.121094 L 557.476562 488.984375 L 557.472656 488.945312 L 557.472656 488.808594 L 557.46875 488.675781 L 557.464844 488.652344 L 557.464844 488.539062 L 557.460938 488.5 L 557.460938 488.394531 L 557.457031 488.363281 L 557.457031 488.230469 L 557.453125 488.199219 L 557.453125 488.09375 L 557.449219 488.054688 L 557.445312 487.929688 L 557.445312 487.921875 L 557.441406 487.785156 L 557.441406 487.75 L 557.4375 487.644531 L 557.4375 487.613281 L 557.433594 487.476562 L 557.433594 487.472656 L 557.425781 487.339844 L 557.425781 487.308594 L 557.421875 487.195312 L 557.421875 487.167969 L 557.417969 487.03125 L 557.414062 487.011719 L 557.410156 486.898438 L 557.410156 486.859375 L 557.402344 486.75 L 557.402344 486.726562 L 557.398438 486.59375 L 557.394531 486.5625 L 557.390625 486.453125 L 557.386719 486.421875 L 557.382812 486.292969 L 557.382812 486.285156 L 557.375 486.152344 L 557.375 486.117188 L 557.367188 486.015625 L 557.367188 485.976562 L 557.359375 485.84375 L 557.359375 485.832031 L 557.351562 485.710938 L 557.351562 485.671875 L 557.34375 485.566406 L 557.34375 485.539062 L 557.335938 485.402344 L 557.335938 485.382812 L 557.328125 485.269531 L 557.324219 485.234375 L 557.320312 485.117188 L 557.316406 485.097656 L 557.308594 484.964844 L 557.308594 484.933594 L 557.300781 484.828125 L 557.300781 484.792969 C 557.292969 484.703125 557.289062 484.613281 557.28125 484.523438 L 557.28125 484.492188 L 557.273438 484.382812 L 557.273438 484.351562 L 557.261719 484.21875 L 557.261719 484.207031 L 557.253906 484.085938 L 557.25 484.050781 L 557.242188 483.941406 L 557.238281 483.914062 L 557.230469 483.777344 L 557.226562 483.757812 L 557.21875 483.648438 L 557.214844 483.609375 L 557.207031 483.492188 L 557.207031 483.476562 L 557.195312 483.34375 L 557.195312 483.316406 L 557.1875 483.207031 L 557.183594 483.171875 C 557.175781 483.082031 557.167969 482.996094 557.160156 482.90625 L 557.15625 482.875 L 557.148438 482.765625 L 557.144531 482.734375 L 557.132812 482.601562 L 557.132812 482.585938 L 557.121094 482.46875 L 557.121094 482.429688 L 557.109375 482.320312 L 557.109375 482.296875 L 557.09375 482.164062 L 557.09375 482.140625 L 557.082031 482.027344 L 557.082031 481.996094 L 557.070312 481.875 L 557.066406 481.863281 L 557.054688 481.730469 L 557.050781 481.699219 L 557.042969 481.589844 L 557.039062 481.558594 C 557.027344 481.46875 557.019531 481.382812 557.011719 481.292969 L 556.996094 481.152344 L 556.992188 481.125 L 556.980469 480.992188 L 556.976562 480.976562 L 556.964844 480.855469 L 556.960938 480.828125 L 556.949219 480.710938 L 556.945312 480.691406 C 556.941406 480.640625 556.9375 480.601562 556.929688 480.554688 L 556.929688 480.542969 L 556.917969 480.417969 L 556.914062 480.394531 C 556.902344 480.304688 556.894531 480.214844 556.882812 480.121094 L 556.878906 480.09375 L 556.867188 479.984375 L 556.863281 479.957031 C 556.851562 479.867188 556.84375 479.777344 556.832031 479.6875 L 556.828125 479.664062 L 556.8125 479.542969 L 556.8125 479.527344 L 556.796875 479.386719 L 556.792969 479.378906 L 556.78125 479.253906 L 556.777344 479.226562 L 556.761719 479.097656 L 556.757812 479.09375 L 556.742188 478.957031 L 556.738281 478.933594 L 556.726562 478.820312 L 556.722656 478.792969 C 556.710938 478.699219 556.699219 478.613281 556.6875 478.523438 L 556.683594 478.5 L 556.667969 478.386719 L 556.664062 478.359375 C 556.652344 478.269531 556.640625 478.179688 556.628906 478.089844 L 556.625 478.070312 L 556.609375 477.945312 L 556.605469 477.933594 L 556.585938 477.792969 L 556.585938 477.789062 L 556.566406 477.660156 L 556.5625 477.636719 L 556.546875 477.503906 L 556.527344 477.363281 L 556.523438 477.347656 L 556.507812 477.226562 L 556.503906 477.203125 L 556.464844 476.933594 L 556.460938 476.917969 L 556.441406 476.792969 L 556.441406 476.777344 L 556.417969 476.640625 L 556.398438 476.503906 L 556.394531 476.480469 L 556.375 476.359375 L 556.375 476.347656 L 556.351562 476.207031 L 556.351562 476.203125 L 556.328125 476.074219 L 556.328125 476.054688 C 556.3125 475.964844 556.296875 475.871094 556.28125 475.78125 L 556.28125 475.765625 L 556.261719 475.640625 L 556.257812 475.625 C 556.242188 475.535156 556.226562 475.441406 556.214844 475.351562 L 556.210938 475.335938 L 556.1875 475.207031 L 556.1875 475.199219 C 556.171875 475.105469 556.15625 475.019531 556.140625 474.925781 L 556.136719 474.902344 L 556.113281 474.773438 L 556.089844 474.628906 L 556.089844 474.625 L 556.066406 474.496094 L 556.0625 474.476562 C 556.046875 474.386719 556.03125 474.292969 556.015625 474.207031 L 556.011719 474.1875 L 555.988281 474.066406 L 555.988281 474.050781 C 555.972656 473.960938 555.953125 473.867188 555.9375 473.78125 L 555.933594 473.761719 L 555.910156 473.632812 L 555.910156 473.628906 C 555.894531 473.535156 555.875 473.445312 555.859375 473.351562 L 555.855469 473.335938 L 555.828125 473.203125 L 555.828125 473.199219 L 555.804688 473.058594 L 555.800781 473.054688 L 555.777344 472.925781 L 555.773438 472.910156 C 555.757812 472.820312 555.738281 472.726562 555.71875 472.636719 L 555.71875 472.625 L 555.691406 472.5 L 555.691406 472.484375 C 555.671875 472.398438 555.652344 472.304688 555.636719 472.214844 L 555.609375 472.078125 L 555.605469 472.0625 C 555.585938 471.972656 555.566406 471.882812 555.550781 471.792969 L 555.546875 471.773438 C 555.527344 471.683594 555.507812 471.59375 555.488281 471.503906 L 555.488281 471.496094 L 555.460938 471.367188 L 555.457031 471.351562 L 555.398438 471.078125 L 555.398438 471.074219 L 555.367188 470.941406 L 555.367188 470.933594 C 555.34375 470.839844 555.328125 470.753906 555.304688 470.65625 L 555.304688 470.648438 C 555.273438 470.507812 555.242188 470.371094 555.210938 470.234375 L 555.210938 470.230469 C 555.179688 470.09375 555.148438 469.953125 555.117188 469.816406 L 555.113281 469.804688 C 555.089844 469.714844 555.070312 469.621094 555.046875 469.53125 L 555.046875 469.527344 C 555.015625 469.386719 554.984375 469.253906 554.949219 469.113281 L 554.949219 469.105469 C 554.914062 468.96875 554.882812 468.835938 554.847656 468.695312 L 554.847656 468.6875 C 554.8125 468.546875 554.78125 468.414062 554.746094 468.273438 L 554.742188 468.269531 C 554.722656 468.175781 554.699219 468.085938 554.675781 467.996094 L 554.675781 467.988281 C 554.640625 467.851562 554.605469 467.71875 554.570312 467.578125 L 554.566406 467.570312 C 554.53125 467.433594 554.496094 467.292969 554.460938 467.15625 C 550.855469 453.449219 544.152344 440.75 534.863281 430.042969 C 534.621094 429.761719 534.378906 429.484375 534.132812 429.207031 L 534.128906 429.203125 C 534.035156 429.097656 533.945312 428.996094 533.851562 428.894531 C 533.789062 428.824219 533.726562 428.753906 533.667969 428.6875 L 533.664062 428.6875 C 533.632812 428.652344 533.605469 428.617188 533.574219 428.585938 L 533.570312 428.582031 L 533.390625 428.378906 L 533.378906 428.371094 C 533.289062 428.269531 533.195312 428.167969 533.105469 428.070312 L 533.101562 428.0625 C 533.039062 428 532.976562 427.929688 532.914062 427.863281 L 532.914062 427.859375 L 532.824219 427.761719 L 532.820312 427.757812 C 532.757812 427.691406 532.695312 427.625 532.636719 427.558594 L 532.625 427.550781 L 532.539062 427.457031 L 532.535156 427.453125 C 532.472656 427.386719 532.410156 427.320312 532.347656 427.253906 L 532.34375 427.246094 C 532.25 427.152344 532.15625 427.050781 532.066406 426.953125 L 532.054688 426.945312 C 531.996094 426.878906 531.933594 426.8125 531.871094 426.75 L 531.859375 426.738281 L 531.78125 426.652344 L 531.769531 426.640625 C 531.707031 426.578125 531.644531 426.511719 531.585938 426.449219 L 531.492188 426.355469 L 531.480469 426.339844 L 531.300781 426.152344 L 531.28125 426.136719 C 531.253906 426.109375 531.226562 426.078125 531.199219 426.050781 L 531.097656 425.949219 L 531.089844 425.9375 L 530.992188 425.839844 C 530.960938 425.808594 530.933594 425.777344 530.902344 425.746094 L 530.792969 425.636719 L 530.71875 425.558594 L 530.699219 425.539062 C 530.636719 425.476562 530.578125 425.417969 530.519531 425.359375 L 530.496094 425.335938 C 530.472656 425.3125 530.449219 425.289062 530.425781 425.261719 L 530.40625 425.246094 C 530.375 425.214844 530.34375 425.183594 530.316406 425.15625 L 530.300781 425.140625 L 530.226562 425.0625 L 530.203125 425.042969 C 530.179688 425.015625 530.148438 424.988281 530.125 424.964844 L 530.113281 424.953125 C 530.082031 424.921875 530.050781 424.890625 530.019531 424.859375 L 530.007812 424.847656 C 529.980469 424.824219 529.953125 424.796875 529.929688 424.769531 L 529.90625 424.75 L 529.820312 424.660156 L 529.726562 424.570312 L 529.632812 424.476562 L 529.609375 424.457031 C 529.578125 424.425781 529.554688 424.398438 529.523438 424.367188 L 529.511719 424.359375 L 529.433594 424.28125 L 529.40625 424.257812 L 529.226562 424.078125 L 529.207031 424.0625 L 529.136719 423.992188 L 529.105469 423.964844 L 529.035156 423.898438 L 529.015625 423.878906 L 528.925781 423.792969 L 528.835938 423.703125 L 528.808594 423.679688 L 528.730469 423.609375 L 528.714844 423.589844 L 528.628906 423.507812 L 528.597656 423.480469 C 528.578125 423.460938 528.554688 423.441406 528.535156 423.421875 L 528.503906 423.394531 L 528.417969 423.308594 L 528.398438 423.296875 L 528.328125 423.226562 L 528.292969 423.195312 C 528.273438 423.175781 528.25 423.152344 528.230469 423.132812 L 528.203125 423.109375 C 528.171875 423.082031 528.144531 423.054688 528.113281 423.027344 L 528.089844 423.003906 L 528.023438 422.941406 L 527.988281 422.910156 L 527.929688 422.851562 L 527.898438 422.824219 L 527.8125 422.746094 L 527.78125 422.714844 C 527.761719 422.695312 527.742188 422.679688 527.722656 422.660156 L 527.6875 422.628906 L 527.609375 422.558594 L 527.597656 422.546875 L 527.511719 422.46875 L 527.476562 422.433594 C 527.457031 422.414062 527.4375 422.398438 527.417969 422.378906 L 527.382812 422.347656 L 527.300781 422.273438 L 527.265625 422.238281 L 527.210938 422.191406 L 527.167969 422.148438 L 527.121094 422.105469 L 527.074219 422.066406 C 527.046875 422.039062 527.023438 422.019531 526.996094 421.992188 L 526.953125 421.957031 L 526.902344 421.910156 L 526.859375 421.871094 L 526.808594 421.824219 L 526.765625 421.785156 C 526.738281 421.761719 526.714844 421.738281 526.6875 421.714844 L 526.644531 421.675781 L 526.597656 421.632812 L 526.554688 421.59375 C 526.535156 421.574219 526.515625 421.558594 526.496094 421.542969 L 526.441406 421.492188 L 526.378906 421.4375 L 526.335938 421.398438 L 526.289062 421.359375 L 526.242188 421.316406 L 526.183594 421.265625 L 526.121094 421.210938 L 526.070312 421.167969 L 526.027344 421.125 L 525.933594 421.046875 L 525.855469 420.976562 L 525.808594 420.933594 L 525.761719 420.894531 L 525.714844 420.851562 L 525.667969 420.8125 C 525.644531 420.792969 525.625 420.773438 525.601562 420.753906 L 525.542969 420.703125 L 525.496094 420.664062 L 525.453125 420.625 L 525.351562 420.539062 L 525.285156 420.476562 L 525.230469 420.433594 L 525.183594 420.394531 L 525.132812 420.347656 L 525.089844 420.3125 L 525.027344 420.257812 L 524.960938 420.203125 L 524.917969 420.164062 L 524.867188 420.121094 L 524.824219 420.085938 C 524.796875 420.058594 524.769531 420.035156 524.738281 420.011719 L 524.695312 419.976562 L 524.640625 419.929688 L 524.605469 419.898438 L 524.550781 419.851562 L 524.515625 419.824219 C 524.480469 419.792969 524.441406 419.761719 524.40625 419.730469 L 524.382812 419.710938 C 524.363281 419.695312 524.34375 419.679688 524.324219 419.664062 L 524.292969 419.636719 L 524.234375 419.589844 L 524.207031 419.566406 C 524.167969 419.53125 524.132812 419.5 524.09375 419.46875 L 524.070312 419.449219 L 524.007812 419.398438 L 523.980469 419.375 C 523.960938 419.359375 523.9375 419.339844 523.917969 419.324219 L 523.914062 419.320312 C 523.871094 419.28125 523.820312 419.242188 523.773438 419.203125 L 523.753906 419.1875 C 523.730469 419.167969 523.710938 419.152344 523.6875 419.128906 L 523.671875 419.117188 C 523.601562 419.058594 523.53125 419 523.460938 418.941406 L 523.4375 418.925781 L 523.371094 418.871094 L 523.355469 418.859375 C 523.285156 418.800781 523.214844 418.742188 523.140625 418.683594 L 523.117188 418.664062 C 523.042969 418.605469 522.972656 418.546875 522.898438 418.488281 L 522.890625 418.480469 L 522.820312 418.425781 L 522.800781 418.410156 C 522.730469 418.351562 522.660156 418.296875 522.589844 418.238281 L 522.566406 418.222656 L 522.5 418.167969 L 522.484375 418.152344 C 522.40625 418.09375 522.335938 418.039062 522.261719 417.976562 L 522.25 417.96875 C 522.148438 417.886719 522.042969 417.804688 521.9375 417.722656 L 521.929688 417.71875 C 521.855469 417.65625 521.773438 417.59375 521.695312 417.535156 L 521.691406 417.53125 L 521.617188 417.472656 L 521.609375 417.464844 C 521.53125 417.40625 521.457031 417.347656 521.382812 417.289062 L 521.289062 417.21875 C 521.210938 417.15625 521.128906 417.097656 521.050781 417.035156 L 521.042969 417.03125 C 520.9375 416.949219 520.832031 416.867188 520.726562 416.789062 L 520.71875 416.78125 C 515.269531 412.648438 509.378906 409.125 503.152344 406.289062 C 496.492188 403.246094 488.628906 406.175781 485.585938 412.835938 C 482.546875 419.492188 485.476562 427.359375 492.136719 430.402344 C 492.140625 430.402344 492.148438 430.40625 492.152344 430.410156 C 525.476562 445.566406 540.207031 484.867188 525.050781 518.191406 C 509.894531 551.515625 470.59375 566.242188 437.269531 551.085938 C 413.617188 540.328125 398.429688 516.742188 398.425781 490.757812 C 398.425781 483.4375 392.492188 477.503906 385.171875 477.503906 C 377.851562 477.503906 371.917969 483.445312 371.917969 490.765625 Z M 371.917969 490.765625 " style=" stroke:none;fill-rule:nonzero;fill:rgb(20.784314%,4.313725%,0%);fill-opacity:1;" />
<path d="M 377.164062 417.664062 C 372.785156 417.660156 368.683594 419.820312 366.210938 423.433594 C 352.621094 443.253906 345.363281 466.734375 345.40625 490.765625 C 345.40625 495.320312 345.664062 499.871094 346.179688 504.394531 C 346.941406 511.082031 352.597656 516.140625 359.332031 516.148438 C 359.839844 516.148438 360.34375 516.121094 360.847656 516.0625 C 368.105469 515.234375 373.328125 508.691406 372.523438 501.433594 C 372.460938 500.878906 372.402344 500.320312 372.347656 499.769531 L 372.34375 499.726562 L 372.332031 499.617188 L 372.328125 499.5625 C 372.324219 499.539062 372.324219 499.515625 372.320312 499.496094 L 372.308594 499.355469 C 372.304688 499.320312 372.300781 499.28125 372.296875 499.246094 L 372.292969 499.207031 C 372.292969 499.167969 372.289062 499.128906 372.285156 499.089844 L 372.28125 499.066406 C 372.277344 499.023438 372.273438 498.980469 372.269531 498.941406 L 372.269531 498.933594 L 372.257812 498.796875 L 372.257812 498.785156 C 372.253906 498.738281 372.25 498.691406 372.246094 498.644531 L 372.246094 498.640625 C 372.078125 496.632812 371.972656 494.609375 371.933594 492.570312 L 371.933594 492.5625 L 371.929688 492.417969 L 371.929688 492.414062 L 371.921875 491.972656 L 371.921875 491.964844 C 371.921875 491.917969 371.921875 491.871094 371.921875 491.824219 L 371.921875 491.808594 C 371.921875 491.765625 371.921875 491.71875 371.917969 491.671875 L 371.917969 491.660156 C 371.917969 491.613281 371.917969 491.566406 371.917969 491.519531 L 371.917969 491.515625 C 371.917969 491.46875 371.917969 491.421875 371.917969 491.375 L 371.917969 491.363281 C 371.917969 491.320312 371.917969 491.273438 371.914062 491.230469 L 371.914062 491.054688 C 371.914062 491.011719 371.914062 490.96875 371.914062 490.925781 L 371.914062 490.59375 C 371.914062 490.558594 371.914062 490.527344 371.914062 490.492188 L 371.914062 490.316406 C 371.917969 490.273438 371.917969 490.226562 371.917969 490.179688 L 371.917969 490 C 371.917969 489.960938 371.917969 489.921875 371.917969 489.882812 L 371.917969 489.863281 C 371.921875 489.820312 371.921875 489.773438 371.921875 489.730469 L 371.921875 489.59375 L 371.925781 489.546875 C 371.925781 489.511719 371.925781 489.472656 371.925781 489.4375 L 371.925781 489.414062 C 371.925781 489.367188 371.929688 489.324219 371.929688 489.28125 L 371.929688 489.246094 C 371.929688 489.210938 371.929688 489.179688 371.929688 489.144531 L 371.933594 489.097656 L 371.933594 488.964844 C 371.933594 488.917969 371.9375 488.875 371.9375 488.828125 L 371.9375 488.796875 L 371.941406 488.691406 L 371.941406 488.550781 L 371.945312 488.515625 C 371.945312 488.472656 371.949219 488.425781 371.949219 488.382812 L 371.949219 488.347656 C 371.949219 488.316406 371.949219 488.28125 371.953125 488.246094 L 371.953125 488.199219 L 371.957031 488.105469 L 371.957031 488.066406 C 371.957031 488.019531 371.960938 487.976562 371.960938 487.929688 L 371.960938 487.914062 C 371.964844 487.875 371.964844 487.835938 371.964844 487.796875 L 371.964844 487.753906 L 371.96875 487.652344 L 371.972656 487.617188 L 371.976562 487.480469 L 371.976562 487.476562 L 371.980469 487.347656 L 371.980469 487.3125 L 371.984375 487.207031 L 371.988281 487.171875 L 371.992188 487.035156 C 371.996094 486.988281 371.996094 486.945312 372 486.902344 L 372 486.859375 L 372.003906 486.761719 L 372.007812 486.722656 C 372.007812 486.683594 372.011719 486.644531 372.011719 486.605469 L 372.015625 486.585938 C 372.015625 486.542969 372.019531 486.496094 372.019531 486.453125 L 372.023438 486.417969 L 372.027344 486.316406 L 372.03125 486.277344 L 372.035156 486.164062 L 372.035156 486.140625 L 372.042969 486.007812 L 372.046875 485.96875 L 372.050781 485.871094 L 372.054688 485.828125 L 372.058594 485.726562 L 372.0625 485.691406 L 372.070312 485.5625 L 372.070312 485.527344 L 372.078125 485.425781 L 372.078125 485.382812 C 372.082031 485.351562 372.082031 485.3125 372.085938 485.28125 L 372.085938 485.25 C 372.089844 485.203125 372.09375 485.160156 372.09375 485.113281 L 372.097656 485.085938 C 372.097656 485.050781 372.101562 485.015625 372.101562 484.980469 L 372.105469 484.941406 L 372.113281 484.839844 L 372.113281 484.800781 C 372.117188 484.757812 372.121094 484.710938 372.121094 484.667969 L 372.125 484.652344 C 372.125 484.613281 372.128906 484.574219 372.132812 484.535156 L 372.132812 484.496094 L 372.140625 484.390625 L 372.144531 484.359375 C 372.144531 484.3125 372.148438 484.269531 372.152344 484.222656 L 372.152344 484.214844 C 372.15625 484.171875 372.160156 484.132812 372.164062 484.089844 L 372.164062 484.054688 L 372.171875 483.949219 L 372.171875 483.914062 C 372.179688 483.824219 372.1875 483.738281 372.195312 483.644531 L 372.195312 483.613281 L 372.207031 483.507812 L 372.207031 483.472656 C 372.210938 483.429688 372.214844 483.382812 372.21875 483.339844 C 372.222656 483.292969 372.226562 483.25 372.230469 483.203125 L 372.234375 483.167969 C 372.234375 483.132812 372.238281 483.101562 372.242188 483.066406 L 372.242188 483.027344 L 372.253906 482.910156 L 372.253906 482.894531 C 372.257812 482.847656 372.261719 482.804688 372.265625 482.761719 L 372.269531 482.726562 L 372.277344 482.625 L 372.28125 482.585938 L 372.289062 482.480469 L 372.292969 482.449219 C 372.296875 482.40625 372.300781 482.363281 372.304688 482.320312 L 372.308594 482.285156 L 372.316406 482.183594 L 372.320312 482.144531 C 372.324219 482.105469 372.328125 482.070312 372.332031 482.035156 L 372.332031 482.007812 L 372.34375 481.875 L 372.347656 481.847656 C 372.351562 481.8125 372.355469 481.773438 372.359375 481.738281 L 372.363281 481.703125 L 372.371094 481.59375 L 372.375 481.566406 C 372.378906 481.523438 372.382812 481.480469 372.386719 481.433594 L 372.390625 481.414062 C 372.394531 481.375 372.398438 481.339844 372.402344 481.300781 L 372.40625 481.257812 C 372.410156 481.226562 372.414062 481.195312 372.417969 481.160156 L 372.417969 481.125 C 372.425781 481.082031 372.429688 481.035156 372.433594 480.992188 L 372.433594 480.980469 C 372.441406 480.941406 372.445312 480.898438 372.449219 480.855469 L 372.453125 480.824219 C 372.457031 480.789062 372.457031 480.753906 372.460938 480.71875 L 372.464844 480.6875 C 372.476562 480.597656 372.484375 480.507812 372.496094 480.417969 L 372.5 480.386719 L 372.511719 480.277344 L 372.511719 480.25 C 372.523438 480.15625 372.535156 480.066406 372.546875 479.976562 L 372.546875 479.957031 C 372.550781 479.917969 372.558594 479.878906 372.5625 479.839844 L 372.566406 479.8125 C 372.574219 479.722656 372.585938 479.628906 372.597656 479.539062 L 372.601562 479.515625 C 372.605469 479.480469 372.609375 479.441406 372.613281 479.402344 L 372.617188 479.375 C 372.621094 479.332031 372.628906 479.289062 372.632812 479.246094 L 372.632812 479.242188 L 372.652344 479.101562 L 372.652344 479.085938 L 372.667969 478.96875 L 372.671875 478.933594 C 372.675781 478.894531 372.683594 478.855469 372.6875 478.816406 L 372.691406 478.800781 C 372.695312 478.753906 372.703125 478.707031 372.707031 478.664062 L 372.710938 478.648438 C 372.714844 478.609375 372.71875 478.570312 372.726562 478.527344 L 372.730469 478.5 C 372.734375 478.460938 372.738281 478.421875 372.746094 478.382812 L 372.746094 478.367188 C 372.753906 478.320312 372.757812 478.273438 372.765625 478.226562 C 372.773438 478.179688 372.777344 478.136719 372.785156 478.09375 L 372.789062 478.066406 L 372.804688 477.953125 L 372.804688 477.929688 C 372.816406 477.839844 372.832031 477.75 372.84375 477.660156 L 372.847656 477.628906 L 372.863281 477.519531 L 372.867188 477.496094 L 372.90625 477.226562 L 372.910156 477.195312 L 372.925781 477.085938 L 372.929688 477.0625 C 372.941406 476.96875 372.957031 476.882812 372.96875 476.789062 L 372.972656 476.765625 L 372.988281 476.65625 L 372.996094 476.625 L 373.035156 476.355469 L 373.039062 476.335938 C 373.046875 476.296875 373.050781 476.257812 373.058594 476.21875 L 373.0625 476.195312 L 373.105469 475.925781 L 373.109375 475.90625 L 373.132812 475.765625 C 373.144531 475.671875 373.160156 475.585938 373.175781 475.492188 L 373.179688 475.476562 C 373.183594 475.4375 373.191406 475.398438 373.199219 475.355469 L 373.203125 475.335938 C 373.207031 475.292969 373.214844 475.25 373.222656 475.207031 L 373.222656 475.203125 L 373.25 475.0625 L 373.25 475.054688 L 373.269531 474.929688 L 373.273438 474.902344 C 373.28125 474.863281 373.289062 474.824219 373.296875 474.78125 L 373.296875 474.773438 L 373.320312 474.632812 L 373.34375 474.5 L 373.351562 474.472656 C 373.355469 474.4375 373.363281 474.398438 373.371094 474.363281 L 373.375 474.339844 L 373.421875 474.070312 L 373.425781 474.046875 L 373.449219 473.929688 L 373.453125 473.914062 C 373.46875 473.824219 373.484375 473.730469 373.503906 473.640625 L 373.507812 473.617188 L 373.527344 473.503906 L 373.53125 473.480469 L 373.582031 473.210938 L 373.589844 473.191406 L 373.609375 473.074219 L 373.613281 473.054688 C 373.632812 472.964844 373.648438 472.875 373.667969 472.785156 L 373.671875 472.769531 C 373.675781 472.730469 373.683594 472.691406 373.691406 472.652344 L 373.699219 472.628906 L 373.722656 472.5 L 373.722656 472.496094 L 373.75 472.359375 L 373.753906 472.34375 L 373.777344 472.226562 L 373.785156 472.199219 C 373.789062 472.160156 373.796875 472.121094 373.804688 472.085938 L 373.808594 472.066406 C 373.820312 472.023438 373.828125 471.980469 373.835938 471.933594 L 373.839844 471.914062 L 373.863281 471.804688 L 373.871094 471.773438 L 373.890625 471.660156 L 373.894531 471.640625 C 373.90625 471.597656 373.914062 471.550781 373.925781 471.507812 L 373.925781 471.496094 L 373.953125 471.375 L 373.957031 471.347656 L 373.980469 471.234375 L 373.984375 471.21875 C 374.003906 471.128906 374.023438 471.039062 374.042969 470.953125 L 374.046875 470.925781 L 374.074219 470.8125 L 374.078125 470.796875 C 374.097656 470.707031 374.117188 470.613281 374.136719 470.527344 L 374.140625 470.507812 C 374.148438 470.46875 374.160156 470.429688 374.167969 470.390625 L 374.171875 470.371094 C 374.191406 470.28125 374.210938 470.191406 374.230469 470.105469 L 374.238281 470.085938 L 374.265625 469.96875 L 374.269531 469.949219 C 374.289062 469.859375 374.308594 469.769531 374.328125 469.679688 L 374.332031 469.667969 L 374.363281 469.546875 L 374.367188 469.527344 L 374.429688 469.257812 L 374.433594 469.25 L 374.460938 469.128906 L 374.464844 469.105469 L 374.496094 468.976562 L 374.53125 468.839844 L 374.53125 468.832031 C 374.542969 468.792969 374.550781 468.75 374.5625 468.710938 L 374.570312 468.683594 C 374.578125 468.644531 374.589844 468.605469 374.597656 468.5625 L 374.601562 468.554688 L 374.636719 468.417969 L 374.636719 468.414062 L 374.667969 468.289062 L 374.675781 468.265625 L 374.703125 468.152344 L 374.707031 468.132812 L 374.738281 468 L 374.742188 468 L 374.773438 467.871094 L 374.777344 467.847656 C 374.789062 467.808594 374.796875 467.769531 374.808594 467.734375 L 374.8125 467.714844 C 374.824219 467.671875 374.835938 467.628906 374.847656 467.582031 L 374.847656 467.578125 C 374.859375 467.535156 374.867188 467.496094 374.878906 467.453125 L 374.886719 467.429688 L 374.914062 467.320312 L 374.921875 467.296875 C 374.945312 467.210938 374.96875 467.121094 374.988281 467.035156 L 374.996094 467.011719 C 375.007812 466.976562 375.015625 466.9375 375.027344 466.902344 L 375.03125 466.878906 C 375.054688 466.792969 375.078125 466.707031 375.101562 466.617188 L 375.105469 466.601562 C 375.117188 466.5625 375.125 466.527344 375.136719 466.488281 L 375.144531 466.464844 C 375.167969 466.375 375.191406 466.285156 375.214844 466.199219 L 375.21875 466.191406 C 375.226562 466.148438 375.238281 466.109375 375.25 466.070312 L 375.253906 466.050781 C 375.265625 466.007812 375.28125 465.964844 375.292969 465.921875 L 375.328125 465.785156 L 375.332031 465.773438 C 375.34375 465.734375 375.355469 465.695312 375.363281 465.65625 L 375.371094 465.632812 C 375.382812 465.59375 375.394531 465.554688 375.40625 465.515625 L 375.40625 465.503906 C 375.417969 465.460938 375.429688 465.414062 375.445312 465.371094 L 375.449219 465.359375 L 375.480469 465.242188 L 375.488281 465.21875 L 375.519531 465.105469 L 375.523438 465.089844 L 375.597656 464.832031 L 375.605469 464.804688 C 375.617188 464.769531 375.628906 464.730469 375.636719 464.691406 L 375.640625 464.679688 C 375.667969 464.589844 375.695312 464.503906 375.71875 464.417969 L 375.726562 464.394531 L 375.757812 464.285156 L 375.765625 464.261719 C 375.789062 464.175781 375.816406 464.089844 375.839844 464.003906 L 375.847656 463.984375 L 375.882812 463.871094 L 375.890625 463.851562 C 375.914062 463.765625 375.941406 463.679688 375.96875 463.59375 L 375.972656 463.574219 L 376.007812 463.464844 L 376.015625 463.441406 C 376.039062 463.355469 376.066406 463.273438 376.09375 463.1875 L 376.101562 463.164062 C 376.109375 463.128906 376.121094 463.089844 376.132812 463.054688 L 376.140625 463.03125 C 376.167969 462.945312 376.195312 462.863281 376.222656 462.773438 L 376.226562 462.761719 L 376.261719 462.648438 L 376.269531 462.621094 C 376.28125 462.582031 376.296875 462.542969 376.308594 462.503906 L 376.308594 462.5 C 376.324219 462.457031 376.339844 462.410156 376.351562 462.367188 L 376.355469 462.351562 L 376.394531 462.242188 L 376.402344 462.21875 L 376.4375 462.101562 L 376.488281 461.949219 C 376.5 461.910156 376.511719 461.875 376.523438 461.835938 L 376.535156 461.808594 C 376.546875 461.773438 376.558594 461.734375 376.570312 461.699219 L 376.574219 461.683594 L 376.621094 461.542969 L 376.660156 461.429688 L 376.667969 461.402344 L 376.703125 461.296875 L 376.710938 461.277344 C 376.738281 461.195312 376.765625 461.109375 376.796875 461.027344 L 376.804688 460.996094 L 376.839844 460.894531 L 376.847656 460.871094 C 376.875 460.785156 376.90625 460.703125 376.933594 460.617188 L 376.941406 460.59375 C 376.957031 460.558594 376.964844 460.523438 376.976562 460.492188 L 376.988281 460.464844 C 377.015625 460.378906 377.046875 460.296875 377.074219 460.214844 L 377.082031 460.1875 L 377.117188 460.089844 L 377.128906 460.0625 C 377.140625 460.023438 377.15625 459.984375 377.167969 459.949219 L 377.214844 459.808594 L 377.222656 459.789062 C 377.234375 459.753906 377.25 459.71875 377.261719 459.683594 L 377.269531 459.660156 L 377.3125 459.542969 L 377.316406 459.535156 C 377.328125 459.496094 377.34375 459.453125 377.359375 459.410156 L 377.367188 459.382812 L 377.402344 459.289062 L 377.410156 459.246094 L 377.445312 459.148438 L 377.453125 459.121094 L 377.496094 459.003906 L 377.507812 458.972656 L 377.542969 458.882812 L 377.558594 458.84375 L 377.589844 458.75 L 377.601562 458.722656 C 377.617188 458.679688 377.632812 458.640625 377.644531 458.601562 L 377.652344 458.578125 C 377.667969 458.542969 377.679688 458.511719 377.691406 458.480469 L 377.703125 458.445312 C 377.714844 458.414062 377.726562 458.382812 377.738281 458.351562 L 377.75 458.320312 L 377.792969 458.199219 L 377.800781 458.191406 L 377.839844 458.078125 L 377.898438 457.921875 C 377.914062 457.878906 377.929688 457.84375 377.945312 457.800781 L 377.949219 457.785156 C 377.964844 457.753906 377.976562 457.714844 377.988281 457.683594 L 378.003906 457.644531 C 378.015625 457.617188 378.027344 457.589844 378.035156 457.558594 L 378.050781 457.519531 L 378.09375 457.410156 L 378.101562 457.398438 C 378.113281 457.359375 378.128906 457.324219 378.144531 457.285156 L 378.160156 457.246094 C 378.171875 457.21875 378.179688 457.191406 378.191406 457.164062 L 378.207031 457.125 L 378.242188 457.027344 L 378.253906 457.003906 C 378.269531 456.964844 378.28125 456.929688 378.296875 456.890625 L 378.3125 456.851562 L 378.34375 456.769531 L 378.363281 456.726562 L 378.398438 456.636719 L 378.410156 456.609375 C 378.425781 456.570312 378.441406 456.53125 378.457031 456.492188 L 378.46875 456.460938 L 378.503906 456.371094 L 378.519531 456.332031 L 378.554688 456.246094 L 378.570312 456.210938 L 378.617188 456.097656 L 378.628906 456.0625 L 378.664062 455.976562 L 378.679688 455.933594 L 378.714844 455.851562 L 378.730469 455.816406 C 378.746094 455.78125 378.761719 455.742188 378.773438 455.703125 L 378.792969 455.664062 L 378.824219 455.585938 L 378.839844 455.539062 C 378.851562 455.515625 378.863281 455.488281 378.875 455.464844 L 378.890625 455.421875 L 378.9375 455.3125 L 378.984375 455.195312 L 379.003906 455.144531 L 379.035156 455.074219 L 379.09375 454.933594 L 379.117188 454.875 C 379.125 454.851562 379.136719 454.828125 379.148438 454.800781 L 379.171875 454.75 C 379.179688 454.730469 379.1875 454.707031 379.195312 454.6875 L 379.21875 454.628906 L 379.25 454.5625 C 379.261719 454.535156 379.273438 454.507812 379.285156 454.480469 C 379.292969 454.457031 379.304688 454.433594 379.3125 454.410156 L 379.335938 454.355469 L 379.363281 454.292969 L 379.386719 454.242188 L 379.417969 454.167969 L 379.449219 454.097656 L 379.484375 454.019531 L 379.503906 453.96875 L 379.53125 453.902344 C 379.539062 453.882812 379.546875 453.867188 379.554688 453.851562 L 379.589844 453.777344 L 379.609375 453.726562 L 379.652344 453.628906 L 379.675781 453.574219 L 379.703125 453.511719 L 379.726562 453.460938 L 379.757812 453.390625 L 379.777344 453.34375 C 379.792969 453.308594 379.808594 453.273438 379.824219 453.238281 L 379.84375 453.195312 L 379.875 453.125 L 379.898438 453.074219 L 379.929688 453.007812 L 379.949219 452.957031 L 379.996094 452.851562 L 380.019531 452.800781 L 380.046875 452.738281 L 380.074219 452.679688 L 380.097656 452.628906 L 380.125 452.566406 C 380.140625 452.53125 380.15625 452.5 380.171875 452.464844 L 380.195312 452.414062 L 380.25 452.296875 L 380.273438 452.242188 L 380.300781 452.179688 L 380.328125 452.121094 L 380.375 452.023438 L 380.398438 451.96875 L 380.425781 451.910156 L 380.453125 451.855469 L 380.480469 451.792969 L 380.511719 451.726562 L 380.550781 451.640625 L 380.578125 451.582031 L 380.605469 451.519531 L 380.628906 451.46875 L 380.660156 451.40625 L 380.683594 451.355469 C 380.699219 451.320312 380.714844 451.285156 380.734375 451.246094 L 380.757812 451.199219 C 380.765625 451.175781 380.777344 451.152344 380.789062 451.132812 L 380.808594 451.089844 L 380.839844 451.019531 L 380.863281 450.976562 L 380.917969 450.863281 L 380.941406 450.816406 L 380.972656 450.746094 L 380.992188 450.703125 C 381.003906 450.679688 381.015625 450.660156 381.023438 450.636719 L 381.042969 450.601562 L 381.109375 450.457031 L 381.121094 450.433594 L 381.15625 450.367188 L 381.175781 450.324219 L 381.207031 450.257812 L 381.34375 449.984375 L 381.363281 449.941406 C 381.371094 449.921875 381.386719 449.894531 381.394531 449.875 L 381.414062 449.832031 C 381.453125 449.753906 381.492188 449.679688 381.53125 449.601562 L 381.550781 449.5625 C 381.5625 449.539062 381.574219 449.515625 381.585938 449.492188 L 381.601562 449.457031 L 381.640625 449.382812 L 381.648438 449.363281 L 381.738281 449.183594 L 381.773438 449.109375 L 381.792969 449.074219 L 381.828125 449.003906 L 381.839844 448.984375 L 381.914062 448.832031 L 381.929688 448.804688 L 381.964844 448.730469 L 381.984375 448.695312 C 381.996094 448.671875 382.007812 448.648438 382.019531 448.625 L 382.035156 448.597656 L 382.109375 448.449219 L 382.125 448.425781 L 382.160156 448.351562 L 382.175781 448.320312 L 382.214844 448.246094 L 382.226562 448.222656 L 382.3125 448.058594 L 382.316406 448.050781 C 382.332031 448.023438 382.34375 447.996094 382.359375 447.972656 L 382.371094 447.945312 L 382.410156 447.867188 L 382.421875 447.847656 C 382.464844 447.761719 382.511719 447.675781 382.554688 447.589844 L 382.566406 447.570312 C 382.582031 447.542969 382.59375 447.519531 382.609375 447.488281 L 382.617188 447.476562 C 382.664062 447.390625 382.710938 447.300781 382.753906 447.214844 L 382.765625 447.195312 C 382.78125 447.167969 382.792969 447.144531 382.808594 447.117188 L 382.816406 447.097656 C 382.867188 447.007812 382.910156 446.921875 382.960938 446.832031 L 382.964844 446.828125 C 382.980469 446.796875 382.996094 446.769531 383.011719 446.738281 L 383.015625 446.730469 C 383.078125 446.609375 383.148438 446.484375 383.214844 446.363281 L 383.21875 446.355469 C 383.285156 446.234375 383.351562 446.113281 383.417969 445.992188 L 383.421875 445.984375 C 383.488281 445.863281 383.558594 445.742188 383.625 445.621094 L 383.628906 445.613281 C 383.699219 445.488281 383.765625 445.367188 383.835938 445.246094 L 383.835938 445.242188 C 385.160156 442.894531 386.585938 440.609375 388.105469 438.390625 C 392.230469 432.34375 390.671875 424.09375 384.625 419.96875 C 382.425781 418.46875 379.828125 417.664062 377.167969 417.660156 Z M 377.164062 417.664062 " style=" stroke:none;fill-rule:nonzero;fill:rgb(65.098039%,61.176471%,41.960784%);fill-opacity:1;" />
<path d="M 80.300781 477.511719 L 7.558594 543.996094 C -1.488281 553.042969 -1.488281 567.714844 7.558594 576.765625 C 13.765625 582.96875 22.945312 585.136719 31.269531 582.363281 L 133.324219 557.042969 Z M 80.300781 477.511719 " style=" stroke:none;fill-rule:nonzero;fill:rgb(33.333333%,14.509804%,3.921569%);fill-opacity:1;" />
<path d="M 239.363281 397.980469 L 186.34375 477.511719 L 212.855469 557.042969 L 398.425781 371.46875 L 577.078125 117.402344 C 587.972656 101.0625 585.820312 79.300781 571.929688 65.414062 C 555.839844 49.320312 529.75 49.320312 513.660156 65.414062 L 239.132812 344.730469 C 224.582031 359.535156 224.6875 383.300781 239.363281 397.980469 Z M 239.363281 397.980469 " style=" stroke:none;fill-rule:nonzero;fill:rgb(93.333333%,93.72549%,88.235294%);fill-opacity:1;" />
<path d="M 530.980469 61.273438 C 523.894531 61.261719 517.101562 64.097656 512.128906 69.144531 L 294.765625 288.128906 C 284.503906 298.570312 284.652344 315.355469 295.097656 325.617188 C 305.539062 335.878906 322.324219 335.730469 332.585938 325.285156 L 549.886719 106.363281 C 560.148438 95.921875 560.003906 79.136719 549.5625 68.875 C 544.605469 64.003906 537.929688 61.273438 530.980469 61.273438 Z M 530.980469 61.273438 " style=" stroke:none;fill-rule:nonzero;fill:rgb(87.058824%,88.235294%,78.431373%);fill-opacity:1;" />
<path d="M 345.40625 384.722656 C 345.40625 406.683594 327.601562 424.488281 305.640625 424.488281 C 283.679688 424.488281 265.875 406.683594 265.875 384.722656 C 265.875 362.761719 283.679688 344.957031 305.640625 344.957031 C 327.601562 344.957031 345.40625 362.761719 345.40625 384.722656 Z M 345.40625 384.722656 " style=" stroke:none;fill-rule:nonzero;fill:rgb(78.039216%,77.254902%,63.529412%);fill-opacity:1;" />
<path d="M 277.523438 412.84375 C 293.050781 428.371094 318.230469 428.371094 333.757812 412.84375 L 333.890625 412.710938 L 333.945312 412.652344 L 333.957031 412.644531 L 334.003906 412.597656 L 334.019531 412.578125 L 334.074219 412.523438 L 334.078125 412.523438 L 334.132812 412.464844 L 334.148438 412.449219 C 334.164062 412.433594 334.175781 412.417969 334.191406 412.402344 L 334.207031 412.390625 L 334.257812 412.332031 L 334.277344 412.316406 L 334.316406 412.273438 L 334.335938 412.257812 C 334.351562 412.238281 334.371094 412.21875 334.386719 412.199219 L 334.390625 412.195312 C 334.410156 412.179688 334.425781 412.160156 334.445312 412.144531 L 334.460938 412.125 C 334.472656 412.109375 334.488281 412.09375 334.503906 412.082031 L 334.515625 412.066406 L 334.570312 412.011719 L 334.582031 411.996094 L 334.625 411.953125 L 334.640625 411.933594 L 334.703125 411.871094 L 334.75 411.820312 L 334.769531 411.800781 L 334.808594 411.753906 L 334.820312 411.742188 C 334.839844 411.722656 334.855469 411.703125 334.875 411.683594 L 334.890625 411.667969 L 334.929688 411.625 L 334.945312 411.605469 L 335 411.550781 L 335.003906 411.542969 C 335.019531 411.523438 335.039062 411.507812 335.054688 411.488281 L 335.070312 411.472656 C 335.082031 411.457031 335.097656 411.441406 335.113281 411.425781 L 335.125 411.414062 C 335.140625 411.394531 335.160156 411.375 335.175781 411.355469 L 335.191406 411.339844 C 335.203125 411.324219 335.21875 411.308594 335.230469 411.296875 L 335.246094 411.277344 L 335.296875 411.21875 L 335.308594 411.207031 L 335.351562 411.160156 L 335.367188 411.140625 L 335.410156 411.09375 L 335.421875 411.082031 L 335.472656 411.023438 L 335.488281 411.007812 L 335.527344 410.964844 L 335.542969 410.945312 L 335.59375 410.886719 L 335.605469 410.875 C 335.621094 410.859375 335.632812 410.84375 335.644531 410.828125 L 335.664062 410.808594 L 335.703125 410.761719 L 335.714844 410.746094 C 335.730469 410.726562 335.75 410.707031 335.765625 410.691406 L 335.78125 410.671875 L 335.816406 410.628906 L 335.835938 410.609375 C 335.851562 410.589844 335.867188 410.570312 335.882812 410.550781 L 335.898438 410.535156 C 335.910156 410.523438 335.921875 410.507812 335.933594 410.492188 L 335.953125 410.46875 L 335.992188 410.425781 L 336.003906 410.410156 C 336.019531 410.390625 336.035156 410.375 336.050781 410.355469 L 336.070312 410.332031 L 336.105469 410.292969 L 336.121094 410.269531 L 336.167969 410.214844 L 336.183594 410.199219 L 336.21875 410.152344 L 336.238281 410.132812 L 336.277344 410.085938 L 336.289062 410.070312 L 336.335938 410.011719 L 336.355469 409.996094 C 336.363281 409.980469 336.378906 409.964844 336.390625 409.949219 L 336.453125 409.871094 L 336.464844 409.859375 C 336.476562 409.84375 336.488281 409.828125 336.503906 409.808594 L 336.519531 409.792969 L 336.558594 409.742188 L 336.570312 409.730469 L 336.617188 409.671875 L 336.632812 409.648438 L 336.664062 409.609375 L 336.683594 409.585938 L 336.730469 409.53125 L 336.746094 409.511719 L 336.78125 409.46875 L 336.796875 409.445312 L 336.835938 409.398438 L 336.847656 409.382812 L 336.890625 409.328125 L 336.90625 409.304688 L 336.941406 409.265625 L 336.957031 409.242188 C 336.972656 409.222656 336.988281 409.203125 337.003906 409.183594 L 337.015625 409.164062 L 337.050781 409.125 L 337.070312 409.097656 L 337.105469 409.050781 L 337.113281 409.039062 C 337.128906 409.019531 337.144531 409 337.160156 408.980469 L 337.179688 408.957031 L 337.210938 408.917969 L 337.226562 408.894531 C 337.242188 408.875 337.257812 408.855469 337.269531 408.839844 L 337.289062 408.816406 L 337.316406 408.777344 L 337.335938 408.75 L 337.371094 408.710938 L 337.394531 408.675781 L 337.429688 408.632812 L 337.449219 408.605469 L 337.472656 408.570312 L 337.496094 408.542969 L 337.535156 408.488281 L 337.554688 408.464844 L 337.582031 408.425781 L 337.601562 408.398438 L 337.636719 408.355469 L 337.65625 408.328125 L 337.691406 408.28125 L 337.707031 408.257812 L 337.738281 408.214844 L 337.753906 408.195312 L 337.796875 408.136719 L 337.8125 408.113281 L 337.84375 408.074219 L 337.859375 408.046875 L 337.894531 408.003906 L 337.917969 407.972656 L 337.949219 407.929688 L 337.964844 407.902344 L 337.996094 407.863281 L 338.011719 407.839844 L 338.054688 407.78125 L 338.070312 407.757812 L 338.097656 407.71875 L 338.117188 407.691406 L 338.148438 407.648438 L 338.171875 407.617188 L 338.199219 407.574219 L 338.222656 407.546875 L 338.246094 407.511719 L 338.304688 407.429688 L 338.320312 407.402344 L 338.347656 407.363281 L 338.367188 407.335938 L 338.398438 407.292969 L 338.421875 407.257812 C 338.433594 407.246094 338.441406 407.230469 338.449219 407.21875 L 338.46875 407.191406 L 338.496094 407.152344 L 338.511719 407.125 C 338.527344 407.105469 338.539062 407.089844 338.550781 407.070312 L 338.566406 407.042969 L 338.597656 407.003906 L 338.613281 406.976562 L 338.648438 406.925781 L 338.667969 406.902344 L 338.695312 406.855469 L 338.714844 406.828125 L 338.738281 406.789062 L 338.757812 406.765625 L 338.792969 406.707031 L 338.8125 406.683594 L 338.835938 406.640625 L 338.851562 406.617188 C 338.867188 406.601562 338.875 406.582031 338.886719 406.566406 L 338.90625 406.535156 L 338.933594 406.496094 L 338.953125 406.46875 L 338.976562 406.433594 L 338.996094 406.402344 L 339.03125 406.347656 L 339.050781 406.316406 L 339.074219 406.285156 L 339.09375 406.253906 L 339.121094 406.210938 L 339.144531 406.171875 L 339.167969 406.136719 L 339.1875 406.105469 L 339.210938 406.070312 L 339.230469 406.039062 L 339.265625 405.984375 L 339.324219 405.890625 L 339.378906 405.808594 L 339.402344 405.769531 L 339.441406 405.707031 L 339.46875 405.660156 L 339.496094 405.621094 L 339.515625 405.585938 L 339.554688 405.523438 L 339.578125 405.484375 L 339.609375 405.4375 L 339.625 405.40625 L 339.648438 405.371094 L 339.667969 405.335938 L 339.695312 405.292969 L 339.722656 405.253906 L 339.742188 405.21875 L 339.757812 405.1875 L 339.78125 405.15625 L 339.796875 405.125 L 339.832031 405.0625 L 339.851562 405.035156 L 339.871094 405 L 339.890625 404.96875 L 339.917969 404.921875 L 339.941406 404.882812 L 339.964844 404.847656 L 339.980469 404.820312 L 340 404.785156 L 340.023438 404.746094 L 340.054688 404.695312 L 340.070312 404.667969 L 340.089844 404.632812 L 340.105469 404.605469 L 340.144531 404.539062 L 340.15625 404.515625 L 340.179688 404.472656 L 340.191406 404.453125 L 340.21875 404.410156 L 340.222656 404.402344 C 340.238281 404.375 340.253906 404.347656 340.269531 404.320312 L 340.28125 404.292969 L 340.304688 404.257812 L 340.316406 404.234375 L 340.359375 404.15625 L 340.371094 404.140625 L 340.390625 404.101562 L 340.40625 404.078125 C 340.429688 404.03125 340.457031 403.984375 340.480469 403.941406 L 340.488281 403.925781 L 340.515625 403.878906 L 340.519531 403.867188 C 340.539062 403.835938 340.554688 403.804688 340.574219 403.773438 L 340.574219 403.765625 L 340.601562 403.71875 L 340.609375 403.707031 C 340.632812 403.660156 340.660156 403.613281 340.683594 403.5625 L 340.695312 403.546875 L 340.71875 403.503906 L 340.726562 403.488281 L 340.773438 403.402344 L 340.777344 403.390625 L 340.800781 403.347656 L 340.8125 403.328125 L 340.886719 403.191406 L 340.894531 403.167969 L 340.917969 403.125 L 340.925781 403.109375 C 340.941406 403.082031 340.957031 403.054688 340.96875 403.027344 L 340.980469 403.011719 L 341 402.96875 L 341.011719 402.949219 C 341.035156 402.902344 341.058594 402.855469 341.082031 402.804688 L 341.089844 402.789062 L 341.117188 402.742188 L 341.167969 402.636719 L 341.171875 402.632812 L 341.203125 402.570312 C 341.226562 402.519531 341.25 402.472656 341.277344 402.421875 L 341.28125 402.410156 L 341.355469 402.261719 L 341.363281 402.25 L 341.394531 402.1875 L 341.464844 402.039062 L 341.472656 402.027344 L 341.496094 401.976562 L 341.496094 401.972656 L 341.542969 401.875 L 341.550781 401.867188 L 341.570312 401.816406 L 341.578125 401.804688 C 341.601562 401.753906 341.625 401.703125 341.648438 401.652344 L 341.65625 401.644531 C 341.679688 401.589844 341.703125 401.539062 341.726562 401.488281 L 341.730469 401.480469 L 341.753906 401.429688 L 341.757812 401.421875 C 341.78125 401.371094 341.804688 401.320312 341.828125 401.265625 L 341.835938 401.257812 C 341.855469 401.203125 341.882812 401.152344 341.90625 401.097656 L 341.90625 401.09375 L 341.929688 401.042969 L 341.933594 401.03125 C 341.957031 400.980469 341.980469 400.929688 342.003906 400.878906 L 342.007812 400.867188 C 342.03125 400.816406 342.054688 400.765625 342.078125 400.710938 L 342.082031 400.707031 L 342.101562 400.65625 L 342.105469 400.644531 C 342.128906 400.59375 342.152344 400.542969 342.171875 400.492188 L 342.179688 400.480469 L 342.246094 400.320312 L 342.25 400.316406 L 342.269531 400.261719 L 342.273438 400.257812 L 342.339844 400.097656 L 342.34375 400.089844 C 342.367188 400.039062 342.386719 399.984375 342.410156 399.929688 L 342.410156 399.925781 L 342.433594 399.871094 L 342.5 399.710938 L 342.503906 399.695312 C 342.527344 399.644531 342.546875 399.589844 342.570312 399.535156 L 342.589844 399.480469 L 342.59375 399.476562 C 344.339844 395.085938 345.292969 390.421875 345.402344 385.699219 L 345.402344 385.691406 C 345.402344 385.613281 345.40625 385.535156 345.40625 385.457031 L 345.40625 385.449219 C 345.40625 385.390625 345.410156 385.335938 345.410156 385.277344 L 345.410156 385.273438 C 345.410156 385.253906 345.410156 385.234375 345.410156 385.214844 L 345.414062 385.039062 L 345.414062 385.03125 C 345.414062 384.976562 345.414062 384.917969 345.414062 384.863281 L 345.414062 384.675781 C 345.414062 384.660156 345.414062 384.640625 345.414062 384.621094 L 345.414062 384.4375 L 345.410156 384.269531 L 345.410156 384.195312 C 345.410156 384.140625 345.40625 384.085938 345.40625 384.03125 L 345.40625 384.015625 C 345.40625 383.960938 345.402344 383.90625 345.402344 383.851562 L 345.402344 383.789062 L 345.398438 383.769531 C 345.398438 383.71875 345.398438 383.664062 345.394531 383.609375 L 345.394531 383.539062 L 345.390625 383.429688 L 345.390625 383.359375 C 345.386719 383.300781 345.386719 383.246094 345.382812 383.191406 L 345.382812 383.183594 C 345.382812 383.125 345.378906 383.070312 345.375 383.015625 L 345.375 382.9375 C 345.371094 382.902344 345.371094 382.867188 345.367188 382.835938 L 345.367188 382.828125 L 345.363281 382.78125 L 345.363281 382.710938 L 345.359375 382.699219 L 345.355469 382.605469 L 345.355469 382.582031 L 345.351562 382.535156 L 345.351562 382.519531 L 345.34375 382.414062 L 345.34375 382.351562 L 345.339844 382.328125 L 345.339844 382.28125 L 345.335938 382.269531 L 345.332031 382.175781 L 345.332031 382.152344 L 345.328125 382.105469 L 345.324219 382.082031 L 345.320312 382 L 345.316406 381.976562 L 345.316406 381.933594 L 345.3125 381.90625 L 345.308594 381.863281 L 345.308594 381.835938 L 345.304688 381.761719 L 345.300781 381.734375 L 345.296875 381.691406 L 345.296875 381.664062 L 345.289062 381.59375 L 345.289062 381.5625 L 345.285156 381.519531 L 345.28125 381.488281 L 345.277344 381.449219 L 345.273438 381.386719 L 345.269531 381.351562 L 345.265625 381.3125 L 345.265625 381.277344 L 345.261719 381.238281 L 345.253906 381.183594 L 345.25 381.140625 L 345.25 381.105469 L 345.246094 381.066406 L 345.242188 381.035156 L 345.234375 380.96875 L 345.234375 380.9375 L 345.226562 380.894531 L 345.226562 380.863281 L 345.222656 380.816406 L 345.21875 380.773438 L 345.210938 380.722656 L 345.210938 380.691406 L 345.203125 380.648438 L 345.203125 380.617188 L 345.195312 380.550781 L 345.191406 380.519531 L 345.1875 380.480469 L 345.183594 380.445312 L 345.179688 380.398438 L 345.175781 380.359375 L 345.167969 380.304688 L 345.167969 380.273438 L 345.15625 380.203125 L 345.148438 380.132812 L 345.148438 380.109375 L 345.140625 380.058594 L 345.136719 380.03125 L 345.132812 379.96875 L 345.128906 379.957031 L 345.121094 379.890625 L 345.117188 379.859375 L 345.113281 379.8125 L 345.109375 379.785156 L 345.101562 379.71875 L 345.097656 379.691406 L 345.089844 379.644531 L 345.085938 379.613281 L 345.078125 379.554688 L 345.074219 379.535156 L 345.066406 379.472656 L 345.0625 379.445312 L 345.058594 379.394531 L 345.042969 379.300781 L 345.039062 379.28125 L 345.03125 379.226562 L 345.03125 379.203125 L 345.019531 379.136719 L 345.019531 379.121094 L 345.007812 379.054688 L 345.007812 379.035156 L 344.996094 378.972656 L 344.996094 378.960938 L 344.984375 378.886719 L 344.980469 378.867188 L 344.972656 378.808594 L 344.96875 378.789062 L 344.957031 378.714844 L 344.957031 378.710938 L 344.945312 378.640625 L 344.941406 378.621094 L 344.933594 378.554688 L 344.929688 378.546875 L 344.917969 378.472656 L 344.917969 378.457031 L 344.90625 378.394531 L 344.90625 378.378906 L 344.878906 378.226562 L 344.878906 378.210938 L 344.867188 378.140625 L 344.863281 378.132812 L 344.851562 378.054688 L 344.851562 378.050781 L 344.839844 377.980469 L 344.835938 377.964844 L 344.8125 377.8125 L 344.808594 377.796875 L 344.792969 377.722656 L 344.78125 377.640625 L 344.777344 377.636719 L 344.765625 377.5625 L 344.765625 377.554688 L 344.734375 377.398438 L 344.734375 377.386719 L 344.703125 377.226562 L 344.6875 377.144531 C 344.675781 377.089844 344.667969 377.035156 344.65625 376.980469 L 344.65625 376.976562 C 344.363281 375.492188 343.980469 374.023438 343.519531 372.578125 C 341.292969 365.605469 333.832031 361.761719 326.859375 363.988281 C 319.886719 366.21875 316.039062 373.679688 318.269531 380.652344 C 320.511719 387.621094 316.679688 395.09375 309.707031 397.335938 C 304.976562 398.859375 299.789062 397.605469 296.273438 394.09375 C 291.097656 388.917969 282.703125 388.917969 277.527344 394.09375 C 272.34375 399.273438 272.34375 407.664062 277.523438 412.84375 Z M 277.523438 412.84375 " style=" stroke:none;fill-rule:nonzero;fill:rgb(65.098039%,61.176471%,41.960784%);fill-opacity:1;" />
<path d="M 318.894531 371.46875 C 318.894531 386.109375 307.027344 397.976562 292.386719 397.976562 C 277.742188 397.976562 265.875 386.109375 265.875 371.46875 C 265.875 356.828125 277.742188 344.957031 292.386719 344.957031 C 307.027344 344.957031 318.894531 356.828125 318.894531 371.46875 Z M 318.894531 371.46875 " style=" stroke:none;fill-rule:nonzero;fill:rgb(87.058824%,88.235294%,78.431373%);fill-opacity:1;" />
<path d="M 146.578125 397.980469 C 95.332031 397.980469 53.792969 439.519531 53.792969 490.765625 C 53.792969 542.007812 95.332031 583.550781 146.578125 583.550781 C 197.820312 583.550781 239.363281 542.007812 239.363281 490.765625 C 239.363281 439.519531 197.824219 397.980469 146.578125 397.980469 Z M 146.578125 530.53125 C 124.617188 530.53125 106.8125 512.726562 106.8125 490.765625 C 106.8125 468.804688 124.617188 451 146.578125 451 C 168.539062 451 186.34375 468.804688 186.34375 490.765625 C 186.34375 512.726562 168.539062 530.53125 146.578125 530.53125 Z M 146.578125 530.53125 " style=" stroke:none;fill-rule:nonzero;fill:rgb(33.333333%,14.509804%,3.921569%);fill-opacity:1;" />
<path d="M 146.578125 424.488281 C 109.972656 424.488281 80.300781 454.160156 80.300781 490.765625 C 80.300781 498.085938 86.234375 504.019531 93.554688 504.019531 C 100.878906 504.019531 106.8125 498.085938 106.8125 490.765625 C 106.835938 468.8125 124.625 451.023438 146.578125 451 C 153.898438 451 159.832031 445.066406 159.832031 437.746094 C 159.832031 430.421875 153.898438 424.488281 146.578125 424.488281 Z M 146.578125 424.488281 " style=" stroke:none;fill-rule:nonzero;fill:rgb(55.686275%,39.215686%,30.196078%);fill-opacity:1;" />
<path d="M 464.703125 424.488281 C 428.097656 424.488281 398.425781 454.160156 398.425781 490.765625 C 398.425781 498.085938 404.359375 504.019531 411.679688 504.019531 C 419 504.019531 424.9375 498.085938 424.9375 490.765625 C 424.960938 468.8125 442.75 451.023438 464.703125 451 C 472.023438 451 477.957031 445.066406 477.957031 437.746094 C 477.957031 430.421875 472.023438 424.488281 464.703125 424.488281 Z M 464.703125 424.488281 " style=" stroke:none;fill-rule:nonzero;fill:rgb(55.686275%,39.215686%,30.196078%);fill-opacity:1;" />
<path d="M 172.941406 402.445312 C 165.621094 402.445312 159.6875 408.382812 159.6875 415.703125 C 159.6875 421.332031 163.242188 426.34375 168.550781 428.210938 C 203.109375 440.242188 221.371094 478.011719 209.335938 512.570312 C 197.304688 547.125 159.535156 565.386719 124.980469 553.355469 C 119.25 551.359375 113.820312 548.589844 108.84375 545.113281 C 102.574219 540.75 94.726562 539.300781 87.3125 541.140625 L 60.011719 547.914062 C 52.902344 549.664062 48.5625 556.847656 50.316406 563.957031 C 52.066406 571.066406 59.25 575.40625 66.359375 573.652344 L 92.734375 567.109375 L 92.757812 567.105469 L 92.851562 567.082031 L 92.902344 567.070312 L 92.921875 567.066406 L 92.964844 567.050781 L 92.96875 567.050781 L 92.988281 567.046875 L 93.082031 567.023438 L 93.09375 567.023438 L 93.136719 567.011719 L 93.21875 566.992188 L 93.230469 566.988281 L 93.238281 566.988281 L 93.253906 566.984375 L 93.261719 566.980469 L 93.277344 566.976562 L 93.28125 566.976562 L 93.304688 566.96875 L 93.351562 566.957031 L 93.359375 566.957031 L 93.375 566.953125 L 93.398438 566.945312 L 93.425781 566.941406 L 93.429688 566.9375 L 93.445312 566.933594 L 93.519531 566.917969 L 93.523438 566.914062 L 93.621094 566.890625 L 93.699219 566.875 C 135.648438 596.160156 193.402344 585.894531 222.691406 543.941406 C 233.574219 528.347656 239.398438 509.78125 239.367188 490.765625 L 239.367188 490.144531 C 239.367188 490.105469 239.367188 490.070312 239.363281 490.035156 L 239.363281 489.710938 C 239.359375 489.667969 239.359375 489.621094 239.359375 489.574219 L 239.359375 489.542969 C 239.359375 489.507812 239.359375 489.46875 239.355469 489.4375 L 239.355469 489.394531 C 239.355469 489.363281 239.355469 489.328125 239.355469 489.296875 L 239.355469 489.253906 C 239.351562 489.214844 239.351562 489.175781 239.351562 489.136719 L 239.351562 489.117188 L 239.347656 488.980469 L 239.347656 488.84375 L 239.34375 488.796875 C 239.34375 488.765625 239.34375 488.730469 239.34375 488.699219 L 239.339844 488.660156 C 239.339844 488.613281 239.339844 488.570312 239.339844 488.527344 L 239.339844 488.519531 C 239.335938 488.476562 239.335938 488.429688 239.335938 488.386719 L 239.332031 488.339844 L 239.332031 488.25 L 239.328125 488.199219 L 239.328125 488.105469 L 239.324219 488.0625 C 239.324219 488.015625 239.324219 487.972656 239.320312 487.925781 L 239.320312 487.914062 C 239.320312 487.875 239.320312 487.832031 239.316406 487.792969 L 239.316406 487.75 C 239.316406 487.71875 239.3125 487.683594 239.3125 487.652344 L 239.3125 487.609375 C 239.308594 487.574219 239.308594 487.539062 239.308594 487.503906 L 239.308594 487.472656 L 239.300781 487.335938 L 239.300781 487.304688 L 239.296875 487.199219 L 239.292969 487.152344 L 239.292969 487.058594 L 239.289062 487.015625 L 239.285156 486.898438 L 239.285156 486.878906 C 239.28125 486.832031 239.28125 486.789062 239.277344 486.742188 L 239.277344 486.707031 L 239.273438 486.609375 L 239.269531 486.5625 L 239.265625 486.464844 L 239.265625 486.421875 C 239.261719 486.378906 239.261719 486.34375 239.257812 486.300781 L 239.257812 486.285156 L 239.25 486.15625 L 239.25 486.109375 L 239.242188 486.019531 L 239.242188 485.964844 L 239.238281 485.878906 L 239.234375 485.832031 C 239.234375 485.789062 239.230469 485.746094 239.230469 485.703125 L 239.226562 485.671875 L 239.222656 485.5625 L 239.21875 485.515625 L 239.210938 485.429688 L 239.210938 485.378906 C 239.207031 485.34375 239.207031 485.3125 239.203125 485.277344 L 239.203125 485.246094 L 239.195312 485.109375 L 239.191406 485.082031 L 239.1875 484.976562 L 239.183594 484.929688 L 239.179688 484.839844 L 239.175781 484.789062 L 239.167969 484.679688 L 239.167969 484.65625 L 239.160156 484.523438 L 239.15625 484.484375 L 239.152344 484.390625 L 239.148438 484.339844 L 239.140625 484.25 L 239.140625 484.203125 L 239.128906 484.085938 L 239.128906 484.0625 C 239.125 484.023438 239.121094 483.980469 239.121094 483.9375 L 239.117188 483.890625 L 239.109375 483.804688 L 239.105469 483.753906 C 239.105469 483.722656 239.101562 483.691406 239.101562 483.664062 L 239.097656 483.617188 L 239.085938 483.484375 L 239.082031 483.464844 C 239.082031 483.429688 239.078125 483.390625 239.074219 483.351562 L 239.070312 483.308594 L 239.0625 483.214844 L 239.0625 483.167969 C 239.058594 483.132812 239.054688 483.105469 239.050781 483.070312 L 239.050781 483.035156 C 239.046875 482.992188 239.042969 482.945312 239.039062 482.902344 L 239.035156 482.867188 L 239.027344 482.765625 L 239.023438 482.71875 L 239.015625 482.632812 L 239.011719 482.582031 L 239.003906 482.484375 L 239 482.449219 L 238.988281 482.316406 L 238.984375 482.277344 L 238.972656 482.136719 C 238.96875 482.105469 238.964844 482.078125 238.964844 482.046875 L 238.960938 482 L 238.949219 481.886719 L 238.945312 481.859375 L 238.933594 481.734375 L 238.929688 481.691406 C 238.925781 481.664062 238.925781 481.628906 238.921875 481.601562 L 238.917969 481.550781 L 238.90625 481.460938 L 238.902344 481.417969 C 238.898438 481.375 238.894531 481.332031 238.890625 481.289062 L 238.886719 481.253906 C 238.882812 481.222656 238.878906 481.1875 238.875 481.15625 L 238.871094 481.105469 L 238.863281 481.019531 L 238.859375 480.96875 L 238.847656 480.875 L 238.84375 480.835938 C 238.839844 480.792969 238.832031 480.75 238.828125 480.707031 L 238.824219 480.667969 C 238.820312 480.632812 238.820312 480.605469 238.816406 480.570312 L 238.808594 480.523438 L 238.800781 480.433594 L 238.792969 480.386719 C 238.789062 480.355469 238.785156 480.320312 238.78125 480.285156 L 238.78125 480.257812 L 238.765625 480.125 L 238.757812 480.085938 L 238.75 479.992188 L 238.742188 479.945312 C 238.738281 479.917969 238.738281 479.882812 238.734375 479.855469 L 238.726562 479.8125 L 238.695312 479.546875 L 238.691406 479.507812 C 238.6875 479.476562 238.683594 479.445312 238.679688 479.414062 L 238.671875 479.367188 L 238.664062 479.273438 L 238.65625 479.230469 L 238.640625 479.101562 L 238.636719 479.078125 L 238.625 478.972656 L 238.617188 478.921875 L 238.609375 478.835938 L 238.601562 478.785156 L 238.589844 478.691406 L 238.585938 478.65625 L 238.566406 478.523438 L 238.5625 478.492188 C 238.558594 478.457031 238.554688 478.425781 238.550781 478.394531 L 238.542969 478.34375 L 238.53125 478.257812 L 238.527344 478.210938 L 238.511719 478.113281 L 238.507812 478.078125 C 238.503906 478.039062 238.496094 477.996094 238.492188 477.953125 L 238.484375 477.90625 L 238.472656 477.820312 L 238.464844 477.769531 C 238.460938 477.738281 238.457031 477.710938 238.453125 477.679688 L 238.449219 477.636719 L 238.433594 477.523438 L 238.429688 477.503906 L 238.410156 477.375 L 238.40625 477.332031 L 238.390625 477.242188 L 238.382812 477.191406 C 238.378906 477.160156 238.375 477.132812 238.371094 477.105469 L 238.367188 477.0625 C 238.359375 477.015625 238.351562 476.976562 238.347656 476.933594 L 238.34375 476.910156 L 238.328125 476.800781 L 238.320312 476.753906 L 238.300781 476.617188 L 238.277344 476.488281 L 238.261719 476.359375 L 238.253906 476.324219 L 238.238281 476.226562 L 238.230469 476.179688 L 238.21875 476.09375 L 238.210938 476.046875 L 238.195312 475.941406 L 238.191406 475.917969 L 238.167969 475.789062 L 238.164062 475.75 C 238.15625 475.714844 238.152344 475.691406 238.148438 475.65625 L 238.140625 475.609375 C 238.136719 475.582031 238.128906 475.550781 238.125 475.523438 L 238.117188 475.476562 C 238.113281 475.4375 238.105469 475.402344 238.097656 475.367188 L 238.097656 475.347656 L 238.074219 475.21875 L 238.066406 475.171875 L 238.050781 475.085938 L 238.042969 475.039062 C 238.039062 475.011719 238.035156 474.980469 238.027344 474.953125 L 238.019531 474.90625 L 238 474.78125 L 237.996094 474.757812 C 237.988281 474.71875 237.980469 474.683594 237.976562 474.648438 L 237.96875 474.601562 C 237.960938 474.574219 237.957031 474.546875 237.953125 474.519531 L 237.941406 474.464844 L 237.929688 474.382812 L 237.917969 474.335938 C 237.910156 474.292969 237.902344 474.253906 237.894531 474.210938 L 237.890625 474.175781 C 237.882812 474.144531 237.878906 474.113281 237.871094 474.082031 L 237.863281 474.03125 C 237.859375 474.003906 237.851562 473.976562 237.847656 473.949219 L 237.839844 473.902344 C 237.835938 473.867188 237.828125 473.839844 237.820312 473.804688 L 237.816406 473.769531 C 237.808594 473.730469 237.800781 473.6875 237.792969 473.644531 L 237.769531 473.515625 L 237.757812 473.464844 C 237.753906 473.433594 237.746094 473.410156 237.742188 473.378906 L 237.734375 473.332031 C 237.726562 473.300781 237.722656 473.261719 237.714844 473.230469 L 237.710938 473.203125 L 237.6875 473.078125 L 237.675781 473.03125 L 237.660156 472.949219 L 237.652344 472.894531 L 237.636719 472.816406 L 237.625 472.769531 L 237.601562 472.648438 L 237.597656 472.613281 L 237.578125 472.515625 L 237.566406 472.464844 C 237.5625 472.441406 237.554688 472.410156 237.550781 472.382812 L 237.539062 472.335938 L 237.523438 472.246094 L 237.515625 472.203125 C 237.503906 472.160156 237.496094 472.121094 237.488281 472.082031 L 237.480469 472.03125 L 237.460938 471.953125 L 237.453125 471.898438 L 237.4375 471.820312 L 237.425781 471.765625 C 237.417969 471.738281 237.414062 471.710938 237.40625 471.683594 L 237.398438 471.640625 C 237.390625 471.597656 237.378906 471.558594 237.371094 471.519531 L 237.363281 471.46875 C 237.355469 471.445312 237.351562 471.414062 237.34375 471.386719 L 237.332031 471.335938 L 237.316406 471.257812 L 237.304688 471.207031 C 237.296875 471.175781 237.289062 471.140625 237.285156 471.109375 L 237.277344 471.074219 C 237.269531 471.035156 237.257812 470.996094 237.25 470.957031 L 237.238281 470.902344 L 237.226562 470.828125 C 237.21875 470.808594 237.214844 470.789062 237.210938 470.773438 C 237.207031 470.746094 237.203125 470.722656 237.195312 470.695312 L 237.183594 470.644531 L 237.15625 470.519531 L 237.152344 470.496094 L 237.128906 470.398438 L 237.117188 470.34375 L 237.097656 470.265625 L 237.085938 470.214844 L 237.070312 470.132812 L 237.058594 470.085938 C 237.046875 470.046875 237.039062 470.007812 237.03125 469.964844 L 237.019531 469.921875 C 237.011719 469.894531 237.007812 469.867188 237 469.839844 L 236.988281 469.785156 L 236.957031 469.660156 L 236.9375 469.570312 L 236.929688 469.53125 C 236.917969 469.488281 236.910156 469.449219 236.902344 469.40625 L 236.890625 469.367188 C 236.882812 469.339844 236.875 469.308594 236.871094 469.28125 L 236.859375 469.230469 C 236.851562 469.203125 236.847656 469.175781 236.839844 469.152344 L 236.828125 469.101562 C 236.820312 469.070312 236.8125 469.035156 236.804688 469.003906 L 236.796875 468.976562 L 236.769531 468.851562 L 236.757812 468.808594 C 236.753906 468.78125 236.746094 468.753906 236.738281 468.722656 L 236.726562 468.675781 L 236.707031 468.59375 L 236.695312 468.546875 C 236.683594 468.503906 236.675781 468.464844 236.664062 468.421875 L 236.660156 468.402344 C 236.652344 468.367188 236.640625 468.332031 236.632812 468.296875 L 236.601562 468.171875 L 236.589844 468.117188 L 236.558594 467.992188 L 236.527344 467.871094 L 236.515625 467.832031 L 236.496094 467.746094 L 236.480469 467.691406 L 236.460938 467.621094 L 236.445312 467.558594 C 236.441406 467.535156 236.433594 467.511719 236.425781 467.484375 L 236.414062 467.4375 L 236.382812 467.316406 L 236.351562 467.191406 L 236.335938 467.136719 L 236.316406 467.0625 L 236.304688 467.011719 C 236.296875 466.980469 236.285156 466.945312 236.277344 466.914062 L 236.269531 466.886719 C 236.261719 466.84375 236.25 466.804688 236.238281 466.765625 L 236.226562 466.714844 L 236.203125 466.636719 L 236.191406 466.585938 L 236.171875 466.507812 L 236.15625 466.457031 C 236.144531 466.421875 236.136719 466.386719 236.128906 466.351562 L 236.117188 466.308594 L 236.089844 466.214844 L 236.074219 466.164062 C 236.070312 466.140625 236.0625 466.109375 236.054688 466.085938 L 236.039062 466.035156 L 236.019531 465.957031 L 236.003906 465.910156 L 235.972656 465.792969 L 235.960938 465.75 L 235.921875 465.613281 L 235.902344 465.539062 L 235.886719 465.484375 L 235.863281 465.40625 L 235.851562 465.359375 L 235.816406 465.242188 L 235.804688 465.199219 L 235.78125 465.117188 L 235.769531 465.066406 L 235.746094 464.988281 L 235.730469 464.941406 L 235.703125 464.851562 L 235.695312 464.8125 C 235.683594 464.777344 235.671875 464.734375 235.660156 464.699219 L 235.644531 464.648438 L 235.621094 464.574219 L 235.609375 464.519531 C 235.601562 464.496094 235.59375 464.46875 235.585938 464.445312 L 235.570312 464.394531 C 235.5625 464.363281 235.550781 464.332031 235.542969 464.300781 L 235.523438 464.238281 L 235.5 464.152344 L 235.484375 464.101562 L 235.460938 464.027344 L 235.445312 463.972656 C 235.4375 463.949219 235.429688 463.925781 235.421875 463.898438 L 235.40625 463.847656 L 235.371094 463.730469 L 235.359375 463.6875 L 235.316406 463.558594 C 235.308594 463.53125 235.300781 463.503906 235.292969 463.480469 L 235.28125 463.429688 L 235.253906 463.351562 L 235.242188 463.304688 L 235.207031 463.191406 L 235.1875 463.136719 L 235.164062 463.066406 L 235.148438 463.007812 L 235.125 462.9375 L 235.109375 462.886719 C 235.101562 462.859375 235.089844 462.828125 235.082031 462.800781 L 235.070312 462.761719 C 235.058594 462.726562 235.046875 462.683594 235.035156 462.644531 C 235.027344 462.628906 235.023438 462.613281 235.019531 462.597656 L 234.996094 462.523438 L 234.980469 462.46875 L 234.957031 462.394531 L 234.941406 462.347656 C 234.929688 462.308594 234.917969 462.269531 234.902344 462.234375 L 234.894531 462.207031 L 234.863281 462.105469 L 234.847656 462.058594 L 234.820312 461.980469 L 234.804688 461.933594 C 234.796875 461.902344 234.789062 461.875 234.777344 461.847656 L 234.765625 461.8125 L 234.726562 461.6875 L 234.71875 461.660156 C 234.707031 461.628906 234.695312 461.597656 234.6875 461.566406 L 234.671875 461.519531 C 234.664062 461.496094 234.652344 461.46875 234.644531 461.441406 L 234.628906 461.394531 L 234.601562 461.308594 L 234.589844 461.269531 C 234.574219 461.230469 234.5625 461.191406 234.550781 461.152344 L 234.535156 461.109375 C 234.527344 461.085938 234.515625 461.058594 234.507812 461.03125 L 234.488281 460.980469 C 234.480469 460.953125 234.472656 460.933594 234.464844 460.902344 L 234.449219 460.859375 L 234.417969 460.765625 L 234.40625 460.738281 L 234.367188 460.617188 L 234.351562 460.578125 C 234.34375 460.554688 234.332031 460.523438 234.324219 460.496094 L 234.308594 460.445312 C 234.296875 460.421875 234.289062 460.394531 234.28125 460.371094 L 234.265625 460.324219 C 234.253906 460.289062 234.238281 460.246094 234.226562 460.210938 L 234.21875 460.191406 L 234.179688 460.082031 L 234.167969 460.042969 C 234.15625 460.015625 234.148438 459.992188 234.136719 459.960938 L 234.121094 459.914062 C 234.113281 459.886719 234.101562 459.859375 234.09375 459.835938 L 234.078125 459.792969 L 234.035156 459.675781 L 234.027344 459.640625 L 233.992188 459.554688 L 233.976562 459.507812 L 233.949219 459.429688 L 233.929688 459.382812 L 233.902344 459.300781 L 233.886719 459.261719 C 233.871094 459.222656 233.859375 459.183594 233.84375 459.144531 L 233.828125 459.101562 C 233.820312 459.074219 233.8125 459.046875 233.800781 459.023438 L 233.785156 458.972656 C 233.773438 458.945312 233.765625 458.925781 233.757812 458.898438 L 233.738281 458.847656 C 233.726562 458.820312 233.71875 458.792969 233.707031 458.765625 L 233.695312 458.726562 L 233.652344 458.613281 L 233.636719 458.570312 L 233.605469 458.488281 L 233.589844 458.445312 L 233.558594 458.363281 L 233.542969 458.320312 C 233.53125 458.285156 233.515625 458.25 233.503906 458.21875 L 233.492188 458.179688 L 233.453125 458.082031 L 233.4375 458.039062 L 233.40625 457.960938 L 233.390625 457.914062 L 233.359375 457.839844 L 233.34375 457.792969 L 233.300781 457.675781 L 233.285156 457.644531 L 233.253906 457.554688 L 233.234375 457.507812 C 233.226562 457.484375 233.214844 457.460938 233.207031 457.433594 L 233.1875 457.386719 L 233.15625 457.308594 L 233.140625 457.265625 C 233.125 457.226562 233.109375 457.1875 233.097656 457.152344 L 233.082031 457.109375 L 233.050781 457.03125 L 233.03125 456.980469 C 233.023438 456.957031 233.011719 456.933594 233.003906 456.910156 L 232.984375 456.859375 L 232.953125 456.777344 L 232.9375 456.742188 L 232.894531 456.625 L 232.875 456.578125 L 232.847656 456.507812 L 232.824219 456.453125 L 232.796875 456.382812 L 232.777344 456.335938 C 232.765625 456.304688 232.75 456.273438 232.742188 456.242188 L 232.683594 456.101562 L 232.667969 456.058594 L 232.636719 455.980469 L 232.617188 455.933594 C 232.609375 455.910156 232.59375 455.878906 232.585938 455.855469 L 232.570312 455.8125 C 232.554688 455.777344 232.539062 455.738281 232.523438 455.699219 L 232.507812 455.664062 L 232.472656 455.578125 L 232.453125 455.535156 L 232.421875 455.457031 L 232.402344 455.410156 L 232.355469 455.292969 C 232.335938 455.253906 232.324219 455.21875 232.308594 455.179688 L 232.289062 455.136719 L 232.257812 455.058594 L 232.238281 455.011719 L 232.207031 454.941406 L 232.1875 454.890625 L 232.15625 454.816406 L 232.132812 454.761719 L 232.089844 454.660156 L 232.066406 454.609375 L 232.039062 454.542969 L 232.015625 454.492188 C 232.007812 454.464844 231.996094 454.445312 231.988281 454.417969 L 231.96875 454.371094 C 231.953125 454.335938 231.9375 454.300781 231.921875 454.265625 L 231.914062 454.246094 L 231.871094 454.140625 L 231.847656 454.09375 L 231.816406 454.023438 L 231.796875 453.972656 L 231.765625 453.898438 L 231.746094 453.855469 C 231.730469 453.816406 231.714844 453.78125 231.699219 453.742188 L 231.683594 453.707031 C 231.671875 453.679688 231.660156 453.652344 231.644531 453.625 L 231.625 453.578125 L 231.59375 453.503906 L 231.574219 453.460938 C 231.5625 453.433594 231.550781 453.40625 231.539062 453.378906 L 231.519531 453.339844 L 231.472656 453.226562 L 231.457031 453.191406 L 231.417969 453.109375 L 231.398438 453.0625 C 231.386719 453.039062 231.375 453.015625 231.363281 452.988281 L 231.347656 452.945312 C 231.332031 452.917969 231.320312 452.890625 231.308594 452.859375 L 231.292969 452.828125 L 231.242188 452.714844 L 231.226562 452.675781 C 231.214844 452.652344 231.199219 452.621094 231.1875 452.597656 L 231.167969 452.550781 L 231.132812 452.476562 L 231.113281 452.433594 C 231.097656 452.398438 231.082031 452.359375 231.066406 452.324219 L 231.058594 452.3125 L 231.007812 452.203125 L 230.992188 452.164062 L 230.953125 452.085938 L 230.9375 452.042969 C 230.921875 452.015625 230.910156 451.988281 230.898438 451.957031 L 230.882812 451.925781 L 230.828125 451.808594 L 230.820312 451.796875 C 230.808594 451.761719 230.789062 451.726562 230.773438 451.695312 L 230.753906 451.652344 L 230.71875 451.578125 L 230.699219 451.53125 L 230.660156 451.453125 L 230.644531 451.417969 C 230.628906 451.378906 230.609375 451.339844 230.59375 451.304688 L 230.574219 451.269531 C 230.5625 451.242188 230.550781 451.214844 230.535156 451.1875 L 230.515625 451.144531 C 230.503906 451.117188 230.492188 451.09375 230.480469 451.066406 L 230.460938 451.027344 C 230.449219 450.996094 230.433594 450.964844 230.417969 450.933594 L 230.410156 450.910156 C 230.390625 450.871094 230.371094 450.835938 230.355469 450.796875 L 230.296875 450.679688 L 230.277344 450.636719 L 230.242188 450.5625 L 230.21875 450.519531 C 230.203125 450.484375 230.1875 450.449219 230.171875 450.417969 L 230.160156 450.398438 C 230.144531 450.363281 230.125 450.324219 230.109375 450.292969 L 230.089844 450.253906 C 230.078125 450.226562 230.0625 450.199219 230.050781 450.171875 L 230.03125 450.132812 C 230.019531 450.105469 230.007812 450.082031 229.992188 450.050781 L 229.976562 450.015625 L 229.917969 449.902344 L 229.914062 449.886719 L 229.863281 449.785156 L 229.84375 449.75 L 229.804688 449.667969 L 229.785156 449.628906 L 229.742188 449.546875 L 229.726562 449.515625 L 229.671875 449.398438 L 229.660156 449.378906 L 229.613281 449.285156 L 229.59375 449.25 C 229.582031 449.222656 229.566406 449.191406 229.554688 449.167969 L 229.535156 449.132812 L 229.484375 449.03125 L 229.480469 449.015625 C 229.460938 448.976562 229.441406 448.9375 229.417969 448.898438 L 229.40625 448.875 C 229.394531 448.84375 229.375 448.8125 229.359375 448.78125 L 229.34375 448.75 L 229.296875 448.660156 L 229.285156 448.632812 C 229.246094 448.558594 229.207031 448.480469 229.164062 448.402344 L 229.152344 448.371094 L 229.109375 448.289062 L 229.089844 448.25 L 229.042969 448.164062 L 229.03125 448.136719 L 228.96875 448.019531 L 228.964844 448.007812 L 228.910156 447.90625 L 228.894531 447.875 L 228.847656 447.789062 L 228.832031 447.753906 C 228.816406 447.726562 228.800781 447.695312 228.785156 447.664062 L 228.773438 447.640625 C 228.753906 447.605469 228.730469 447.5625 228.710938 447.527344 L 228.699219 447.503906 L 228.648438 447.410156 L 228.632812 447.378906 L 228.585938 447.292969 L 228.570312 447.261719 L 228.515625 447.15625 L 228.511719 447.148438 C 228.492188 447.109375 228.46875 447.070312 228.449219 447.03125 L 228.4375 447.007812 C 228.417969 446.976562 228.402344 446.949219 228.386719 446.917969 L 228.371094 446.882812 C 228.355469 446.855469 228.339844 446.828125 228.324219 446.800781 L 228.304688 446.769531 C 228.265625 446.691406 228.226562 446.617188 228.1875 446.542969 L 228.164062 446.503906 C 228.148438 446.480469 228.136719 446.453125 228.125 446.429688 L 228.101562 446.390625 L 228.054688 446.304688 L 228.042969 446.28125 L 227.976562 446.164062 L 227.976562 446.160156 C 227.957031 446.125 227.933594 446.085938 227.917969 446.050781 L 227.898438 446.019531 L 227.851562 445.933594 L 227.835938 445.902344 L 227.78125 445.808594 L 227.773438 445.789062 C 227.75 445.753906 227.730469 445.714844 227.707031 445.675781 L 227.699219 445.660156 L 227.644531 445.5625 L 227.628906 445.53125 L 227.578125 445.441406 L 227.5625 445.417969 C 227.542969 445.378906 227.523438 445.34375 227.5 445.304688 C 227.480469 445.269531 227.457031 445.226562 227.433594 445.1875 L 227.421875 445.171875 L 227.371094 445.074219 L 227.355469 445.046875 L 227.304688 444.957031 L 227.289062 444.929688 C 227.246094 444.855469 227.203125 444.78125 227.160156 444.703125 L 227.144531 444.679688 C 227.125 444.648438 227.113281 444.625 227.09375 444.59375 L 227.074219 444.558594 L 227.027344 444.472656 L 227.011719 444.445312 L 226.878906 444.21875 L 226.867188 444.195312 L 226.8125 444.105469 L 226.796875 444.078125 C 226.777344 444.046875 226.757812 444.007812 226.738281 443.976562 L 226.730469 443.96875 L 226.664062 443.851562 L 226.660156 443.839844 C 226.636719 443.804688 226.617188 443.773438 226.597656 443.738281 L 226.582031 443.710938 L 226.53125 443.625 L 226.515625 443.597656 L 226.449219 443.488281 C 226.425781 443.445312 226.402344 443.410156 226.378906 443.371094 L 226.371094 443.355469 L 226.3125 443.257812 L 226.296875 443.234375 C 226.277344 443.203125 226.261719 443.171875 226.242188 443.140625 L 226.226562 443.117188 C 226.183594 443.042969 226.136719 442.96875 226.09375 442.890625 L 226.078125 442.871094 C 226.0625 442.84375 226.039062 442.808594 226.023438 442.777344 L 226.007812 442.753906 C 225.988281 442.722656 225.96875 442.691406 225.949219 442.660156 L 225.9375 442.640625 C 225.894531 442.566406 225.847656 442.488281 225.800781 442.414062 L 225.789062 442.398438 C 225.769531 442.363281 225.75 442.332031 225.730469 442.300781 L 225.714844 442.277344 L 225.65625 442.179688 L 225.648438 442.167969 C 225.597656 442.089844 225.554688 442.019531 225.507812 441.941406 L 225.492188 441.917969 C 225.476562 441.886719 225.457031 441.859375 225.4375 441.828125 L 225.421875 441.804688 C 225.375 441.726562 225.332031 441.65625 225.28125 441.578125 L 225.273438 441.566406 L 225.214844 441.46875 L 225.199219 441.445312 L 225.140625 441.351562 L 225.128906 441.335938 C 225.082031 441.261719 225.03125 441.179688 224.984375 441.109375 L 224.976562 441.09375 L 224.914062 440.996094 L 224.902344 440.976562 L 224.839844 440.878906 L 224.832031 440.867188 C 224.78125 440.789062 224.734375 440.71875 224.6875 440.640625 L 224.675781 440.621094 C 224.65625 440.59375 224.632812 440.558594 224.613281 440.527344 L 224.601562 440.507812 L 224.53125 440.402344 L 224.53125 440.398438 C 224.503906 440.359375 224.480469 440.320312 224.453125 440.28125 C 224.429688 440.242188 224.40625 440.207031 224.382812 440.171875 L 224.371094 440.152344 L 224.308594 440.058594 L 224.296875 440.039062 C 224.273438 440.003906 224.25 439.96875 224.226562 439.933594 L 224.226562 439.929688 C 224.199219 439.890625 224.175781 439.855469 224.152344 439.816406 L 224.144531 439.804688 L 224.078125 439.707031 L 224.066406 439.683594 L 224.003906 439.59375 L 223.992188 439.574219 C 223.945312 439.503906 223.894531 439.425781 223.84375 439.351562 L 223.835938 439.339844 L 223.769531 439.242188 L 223.757812 439.222656 L 223.691406 439.125 L 223.683594 439.113281 C 223.632812 439.039062 223.585938 438.96875 223.535156 438.894531 L 223.519531 438.871094 L 223.460938 438.78125 L 223.445312 438.761719 L 223.375 438.660156 L 223.371094 438.652344 C 223.320312 438.578125 223.273438 438.507812 223.222656 438.433594 L 223.207031 438.414062 C 223.1875 438.382812 223.164062 438.351562 223.144531 438.320312 L 223.132812 438.300781 C 223.078125 438.226562 223.03125 438.152344 222.980469 438.078125 L 222.976562 438.078125 L 222.902344 437.972656 L 222.890625 437.953125 L 222.824219 437.855469 L 222.816406 437.84375 L 222.660156 437.621094 L 222.65625 437.617188 L 222.585938 437.515625 L 222.574219 437.496094 L 222.5 437.394531 L 222.5 437.390625 C 222.445312 437.316406 222.394531 437.242188 222.339844 437.167969 L 222.332031 437.15625 L 222.261719 437.058594 L 222.253906 437.042969 C 222.171875 436.933594 222.09375 436.824219 222.015625 436.710938 L 222.011719 436.707031 C 221.984375 436.667969 221.960938 436.636719 221.933594 436.597656 L 221.933594 436.59375 C 221.851562 436.480469 221.773438 436.375 221.691406 436.261719 L 221.683594 436.253906 L 221.609375 436.148438 L 221.601562 436.144531 C 221.519531 436.03125 221.441406 435.921875 221.359375 435.8125 L 221.355469 435.804688 L 221.277344 435.695312 L 221.273438 435.695312 C 221.21875 435.621094 221.164062 435.546875 221.109375 435.472656 L 221.105469 435.46875 L 221.03125 435.363281 L 221.023438 435.355469 C 220.941406 435.246094 220.859375 435.136719 220.777344 435.027344 L 220.773438 435.023438 C 220.746094 434.988281 220.71875 434.953125 220.695312 434.917969 L 220.691406 434.914062 C 220.609375 434.804688 220.523438 434.695312 220.441406 434.585938 L 220.4375 434.578125 C 220.324219 434.429688 220.214844 434.285156 220.101562 434.140625 L 220.101562 434.136719 C 219.988281 433.992188 219.875 433.847656 219.761719 433.699219 L 219.757812 433.699219 C 219.671875 433.585938 219.585938 433.480469 219.5 433.371094 L 219.5 433.367188 C 219.472656 433.332031 219.445312 433.296875 219.414062 433.261719 L 219.414062 433.257812 C 219.328125 433.148438 219.242188 433.042969 219.15625 432.933594 L 219.152344 432.929688 L 219.070312 432.824219 L 219.066406 432.824219 C 219.007812 432.75 218.953125 432.679688 218.894531 432.605469 L 218.808594 432.5 L 218.804688 432.496094 C 218.6875 432.351562 218.574219 432.210938 218.457031 432.066406 L 218.453125 432.0625 C 218.363281 431.957031 218.277344 431.851562 218.1875 431.742188 L 218.1875 431.738281 C 218.15625 431.703125 218.128906 431.671875 218.101562 431.636719 L 218.097656 431.632812 C 218.011719 431.527344 217.921875 431.421875 217.832031 431.316406 L 217.832031 431.3125 C 217.710938 431.171875 217.59375 431.03125 217.476562 430.886719 C 209.097656 420.976562 198.742188 412.925781 187.070312 407.25 C 186.941406 407.1875 186.816406 407.128906 186.691406 407.066406 L 186.6875 407.066406 L 186.566406 407.007812 L 186.5625 407.003906 C 186.433594 406.945312 186.3125 406.886719 186.183594 406.824219 L 186.179688 406.824219 L 186.054688 406.765625 L 186.054688 406.761719 C 185.925781 406.703125 185.800781 406.644531 185.675781 406.585938 L 185.671875 406.582031 C 185.542969 406.523438 185.417969 406.46875 185.292969 406.40625 L 185.285156 406.40625 L 185.167969 406.351562 L 185.15625 406.347656 C 185.03125 406.289062 184.90625 406.234375 184.78125 406.175781 L 184.769531 406.171875 L 184.652344 406.117188 L 184.644531 406.113281 C 184.519531 406.058594 184.390625 406 184.265625 405.945312 L 184.253906 405.941406 C 184.214844 405.925781 184.171875 405.90625 184.136719 405.890625 L 184.128906 405.886719 C 184.003906 405.828125 183.878906 405.777344 183.753906 405.722656 L 183.734375 405.710938 C 183.699219 405.695312 183.660156 405.679688 183.621094 405.664062 L 183.613281 405.660156 C 183.53125 405.621094 183.445312 405.585938 183.363281 405.550781 L 183.347656 405.542969 L 183.238281 405.496094 L 183.21875 405.488281 L 183.101562 405.4375 L 183.097656 405.433594 C 183.015625 405.398438 182.929688 405.363281 182.847656 405.328125 L 182.824219 405.316406 L 182.726562 405.277344 L 182.695312 405.261719 C 182.660156 405.25 182.621094 405.230469 182.585938 405.214844 L 182.578125 405.210938 L 182.449219 405.160156 L 182.445312 405.15625 L 182.328125 405.105469 L 182.308594 405.097656 L 182.203125 405.054688 L 182.179688 405.046875 L 181.933594 404.941406 L 181.917969 404.9375 L 181.808594 404.894531 L 181.78125 404.882812 L 181.683594 404.839844 L 181.660156 404.832031 C 181.578125 404.796875 181.496094 404.765625 181.414062 404.730469 L 181.390625 404.722656 L 181.289062 404.679688 L 181.261719 404.671875 L 181.160156 404.628906 L 181.136719 404.621094 L 181.011719 404.570312 L 181.007812 404.570312 L 180.890625 404.523438 L 180.863281 404.511719 L 180.765625 404.472656 L 180.738281 404.460938 L 180.632812 404.421875 L 180.609375 404.410156 L 180.488281 404.363281 L 180.46875 404.355469 L 180.367188 404.316406 L 180.332031 404.300781 L 180.207031 404.253906 L 180.101562 404.210938 L 180.085938 404.207031 L 179.964844 404.160156 L 179.9375 404.148438 L 179.839844 404.113281 L 179.804688 404.097656 L 179.714844 404.0625 L 179.679688 404.050781 L 179.5625 404.003906 L 179.554688 404.003906 L 179.4375 403.957031 L 179.402344 403.945312 L 179.3125 403.910156 L 179.277344 403.898438 L 179.152344 403.851562 L 179.03125 403.804688 L 179.011719 403.796875 L 178.910156 403.761719 L 178.867188 403.746094 L 178.789062 403.714844 L 178.742188 403.699219 L 178.660156 403.667969 L 178.621094 403.65625 L 178.503906 403.613281 L 178.460938 403.597656 L 178.382812 403.566406 L 178.335938 403.550781 L 178.257812 403.523438 L 178.210938 403.507812 L 178.121094 403.472656 L 178.089844 403.460938 L 177.972656 403.421875 L 177.929688 403.40625 L 177.851562 403.375 L 177.804688 403.359375 L 177.726562 403.332031 L 177.679688 403.316406 L 177.570312 403.277344 L 177.554688 403.273438 C 177.519531 403.257812 177.476562 403.246094 177.441406 403.230469 L 177.398438 403.214844 L 177.335938 403.195312 C 175.910156 402.699219 174.429688 402.445312 172.941406 402.445312 Z M 172.941406 402.445312 " style=" stroke:none;fill-rule:nonzero;fill:rgb(20.784314%,4.313725%,0%);fill-opacity:1;" />
<path d="M 234.773438 418.636719 C 227.453125 418.644531 221.523438 424.585938 221.53125 431.90625 C 221.535156 434.511719 222.304688 437.054688 223.746094 439.222656 C 228.683594 446.601562 232.535156 454.652344 235.179688 463.128906 C 235.25 463.351562 235.324219 463.570312 235.40625 463.78125 C 235.457031 464.011719 235.519531 464.238281 235.585938 464.464844 C 235.855469 465.386719 236.109375 466.300781 236.355469 467.234375 L 236.355469 467.242188 L 236.457031 467.625 L 236.460938 467.652344 C 236.484375 467.738281 236.507812 467.824219 236.527344 467.910156 L 236.539062 467.949219 C 236.542969 467.972656 236.550781 468 236.554688 468.023438 L 236.566406 468.0625 C 236.578125 468.105469 236.589844 468.148438 236.597656 468.191406 L 236.609375 468.242188 L 236.628906 468.308594 C 236.632812 468.328125 236.636719 468.351562 236.640625 468.371094 L 236.65625 468.425781 L 236.683594 468.535156 L 236.699219 468.589844 L 236.714844 468.660156 L 236.726562 468.714844 L 236.753906 468.824219 L 236.761719 468.851562 L 236.785156 468.949219 L 236.796875 468.992188 L 236.820312 469.089844 L 236.824219 469.121094 L 236.855469 469.242188 L 236.863281 469.273438 C 236.871094 469.304688 236.878906 469.339844 236.882812 469.371094 L 236.890625 469.402344 C 236.902344 469.445312 236.910156 469.488281 236.921875 469.53125 L 236.921875 469.535156 C 236.933594 469.578125 236.941406 469.617188 236.953125 469.660156 L 236.957031 469.683594 L 236.984375 469.800781 L 236.988281 469.816406 C 237 469.859375 237.007812 469.902344 237.019531 469.945312 L 237.023438 469.960938 C 237.03125 470.003906 237.042969 470.042969 237.050781 470.082031 L 237.050781 470.097656 C 237.074219 470.1875 237.09375 470.277344 237.113281 470.367188 L 237.117188 470.378906 C 238.167969 475.078125 238.855469 479.851562 239.164062 484.65625 L 239.164062 484.660156 C 239.175781 484.808594 239.183594 484.953125 239.191406 485.101562 L 239.191406 485.105469 L 239.210938 485.390625 L 239.210938 485.40625 C 239.21875 485.503906 239.222656 485.597656 239.226562 485.695312 L 239.226562 485.699219 L 239.234375 485.835938 L 239.234375 485.847656 C 239.238281 485.941406 239.246094 486.035156 239.25 486.128906 L 239.25 486.152344 C 239.253906 486.246094 239.261719 486.335938 239.265625 486.429688 L 239.265625 486.445312 C 239.265625 486.488281 239.269531 486.53125 239.269531 486.574219 L 239.273438 486.59375 L 239.285156 486.871094 L 239.285156 486.894531 C 239.285156 486.941406 239.289062 486.984375 239.289062 487.03125 C 239.292969 487.078125 239.292969 487.125 239.296875 487.171875 L 239.296875 487.195312 C 239.300781 487.234375 239.300781 487.277344 239.300781 487.320312 L 239.304688 487.332031 L 239.308594 487.476562 L 239.308594 487.480469 L 239.3125 487.613281 L 239.3125 487.640625 C 239.316406 487.683594 239.316406 487.730469 239.316406 487.773438 L 239.320312 487.777344 C 239.320312 487.824219 239.320312 487.867188 239.324219 487.914062 L 239.324219 487.941406 C 239.324219 487.980469 239.324219 488.015625 239.328125 488.054688 L 239.328125 488.082031 C 239.328125 488.128906 239.328125 488.171875 239.332031 488.21875 L 239.332031 488.234375 C 239.332031 488.273438 239.332031 488.3125 239.335938 488.351562 L 239.335938 488.390625 C 239.335938 488.429688 239.339844 488.472656 239.339844 488.515625 L 239.339844 488.523438 C 239.339844 488.566406 239.339844 488.613281 239.34375 488.660156 L 239.34375 488.832031 C 239.347656 488.875 239.347656 488.917969 239.347656 488.964844 L 239.347656 488.988281 L 239.351562 489.101562 L 239.351562 489.132812 C 239.351562 489.222656 239.351562 489.316406 239.355469 489.40625 L 239.355469 489.4375 C 239.355469 489.472656 239.355469 489.507812 239.355469 489.546875 L 239.359375 489.578125 C 239.359375 489.621094 239.359375 489.667969 239.359375 489.710938 L 239.359375 489.738281 C 239.359375 489.773438 239.359375 489.8125 239.359375 489.847656 L 239.363281 489.882812 C 239.363281 489.925781 239.363281 489.972656 239.363281 490.015625 C 239.363281 490.0625 239.363281 490.105469 239.363281 490.152344 L 239.363281 490.1875 C 239.363281 490.222656 239.363281 490.261719 239.367188 490.296875 L 239.367188 490.488281 C 239.367188 490.523438 239.367188 490.558594 239.367188 490.597656 L 239.367188 490.9375 C 239.367188 490.972656 239.367188 491.011719 239.367188 491.046875 L 239.367188 491.234375 C 239.363281 491.273438 239.363281 491.308594 239.363281 491.34375 L 239.363281 491.375 C 239.363281 491.417969 239.363281 491.464844 239.363281 491.507812 L 239.363281 491.679688 C 239.359375 491.722656 239.359375 491.765625 239.359375 491.808594 L 239.359375 491.835938 C 239.359375 491.871094 239.359375 491.90625 239.359375 491.941406 L 239.355469 491.984375 C 239.355469 492.023438 239.355469 492.066406 239.355469 492.105469 L 239.355469 492.113281 C 239.355469 492.160156 239.355469 492.203125 239.351562 492.246094 L 239.351562 492.285156 C 239.351562 492.320312 239.351562 492.355469 239.351562 492.390625 L 239.347656 492.417969 L 239.347656 492.585938 L 239.34375 492.683594 L 239.34375 492.722656 L 239.339844 492.847656 L 239.339844 492.980469 L 239.335938 493.027344 L 239.332031 493.144531 L 239.332031 493.28125 L 239.328125 493.332031 L 239.328125 493.425781 L 239.324219 493.476562 L 239.320312 493.585938 L 239.320312 493.636719 L 239.316406 493.722656 L 239.316406 493.769531 C 239.3125 493.808594 239.3125 493.847656 239.3125 493.886719 L 239.308594 493.9375 L 239.308594 494.019531 L 239.304688 494.070312 L 239.300781 494.1875 L 239.300781 494.238281 C 239.296875 494.265625 239.296875 494.292969 239.296875 494.316406 L 239.292969 494.378906 C 239.292969 494.40625 239.292969 494.433594 239.289062 494.460938 C 239.289062 494.488281 239.289062 494.515625 239.289062 494.542969 C 239.285156 494.566406 239.285156 494.59375 239.285156 494.617188 L 239.28125 494.679688 C 239.28125 494.703125 239.28125 494.726562 239.28125 494.746094 C 239.277344 494.777344 239.277344 494.8125 239.277344 494.84375 L 239.273438 494.917969 C 239.273438 494.941406 239.269531 494.964844 239.269531 494.984375 L 239.269531 495.046875 L 239.265625 495.113281 L 239.261719 495.21875 L 239.257812 495.289062 L 239.253906 495.347656 L 239.25 495.417969 L 239.25 495.464844 C 239.246094 495.507812 239.246094 495.558594 239.242188 495.601562 L 239.242188 495.644531 L 239.238281 495.722656 L 239.234375 495.765625 L 239.226562 495.910156 L 239.226562 495.945312 L 239.222656 496.03125 L 239.21875 496.058594 L 239.207031 496.234375 L 239.207031 496.246094 L 239.203125 496.332031 L 239.199219 496.363281 L 239.183594 496.640625 L 239.183594 496.664062 C 239.175781 496.757812 239.167969 496.855469 239.164062 496.949219 L 239.160156 496.96875 C 239.160156 497 239.15625 497.03125 239.15625 497.0625 L 239.15625 497.070312 C 239.148438 497.171875 239.140625 497.265625 239.136719 497.367188 L 239.132812 497.378906 C 239.128906 497.476562 239.117188 497.578125 239.113281 497.675781 L 239.113281 497.679688 C 239.105469 497.78125 239.097656 497.882812 239.089844 497.984375 C 238.992188 499.207031 238.875 500.425781 238.734375 501.636719 L 238.734375 501.644531 C 238.722656 501.738281 238.710938 501.839844 238.699219 501.933594 L 238.699219 501.945312 L 238.6875 502.042969 C 238.679688 502.105469 238.671875 502.167969 238.664062 502.226562 L 238.660156 502.25 C 238.65625 502.28125 238.65625 502.308594 238.652344 502.339844 L 238.648438 502.367188 C 238.640625 502.421875 238.632812 502.480469 238.625 502.539062 L 238.625 502.550781 C 238.621094 502.578125 238.617188 502.601562 238.613281 502.632812 L 238.609375 502.671875 L 238.589844 502.828125 L 238.585938 502.851562 L 238.578125 502.921875 L 238.570312 502.980469 L 238.558594 503.042969 L 238.550781 503.125 L 238.539062 503.207031 L 238.527344 503.277344 L 238.519531 503.335938 L 238.507812 503.429688 L 238.503906 503.476562 L 238.488281 503.578125 L 238.480469 503.621094 L 238.46875 503.722656 L 238.464844 503.75 L 238.449219 503.855469 C 237.425781 511.105469 242.472656 517.8125 249.722656 518.835938 C 250.339844 518.921875 250.964844 518.964844 251.589844 518.964844 C 258.191406 518.957031 263.777344 514.097656 264.699219 507.5625 C 267.085938 490.636719 265.832031 473.398438 261.023438 456.996094 C 260.933594 456.695312 260.832031 456.394531 260.722656 456.105469 C 260.652344 455.800781 260.570312 455.5 260.476562 455.199219 C 257.082031 444.324219 252.140625 433.996094 245.808594 424.527344 C 243.347656 420.839844 239.207031 418.628906 234.773438 418.636719 Z M 234.773438 418.636719 " style=" stroke:none;fill-rule:nonzero;fill:rgb(87.058824%,88.235294%,78.431373%);fill-opacity:1;" />
<path d="M 12.527344 227.445312 L 227.125 12.847656 C 243.820312 -3.847656 270.886719 -3.847656 287.582031 12.847656 C 290.0625 15.328125 292.226562 18.105469 294.027344 21.113281 L 341.945312 100.84375 C 347.394531 109.015625 346.316406 119.894531 339.371094 126.839844 C 331.324219 134.886719 318.28125 134.886719 310.234375 126.839844 L 265.875 80.140625 L 239.363281 106.648438 L 286.894531 154.179688 C 294.214844 161.5 294.214844 173.367188 286.894531 180.6875 C 279.574219 188.007812 267.707031 188.007812 260.382812 180.6875 L 212.855469 133.160156 L 186.34375 159.667969 L 233.875 207.199219 C 241.195312 214.519531 241.195312 226.390625 233.875 233.710938 C 226.554688 241.03125 214.683594 241.03125 207.363281 233.710938 L 159.835938 186.179688 L 133.324219 212.691406 L 180.855469 259.933594 C 188.175781 267.253906 188.175781 279.125 180.855469 286.445312 C 173.535156 293.765625 161.664062 293.765625 154.34375 286.445312 L 106.816406 239.199219 L 80.304688 265.710938 L 127.289062 309.785156 C 135.335938 317.832031 135.335938 330.875 127.289062 338.921875 C 120.347656 345.867188 109.464844 346.941406 101.296875 341.496094 L 20.347656 294.074219 C 0.238281 281.703125 -6.027344 255.371094 6.351562 235.265625 C 8.097656 232.425781 10.171875 229.804688 12.527344 227.445312 Z M 12.527344 227.445312 " style=" stroke:none;fill-rule:nonzero;fill:rgb(33.333333%,14.509804%,3.921569%);fill-opacity:1;" />
<path d="M 257.296875 0.324219 C 245.972656 0.304688 235.109375 4.8125 227.125 12.847656 C 227.125 12.847656 227.039062 12.9375 226.867188 13.105469 L 226.285156 13.6875 C 226.25 13.722656 226.214844 13.757812 226.179688 13.796875 L 31.292969 208.679688 C 26.128906 213.867188 26.152344 222.261719 31.339844 227.425781 C 36.523438 232.578125 44.898438 232.566406 50.066406 227.398438 L 245.871094 31.59375 C 248.878906 28.523438 253.003906 26.808594 257.296875 26.835938 C 264.621094 26.835938 270.554688 20.902344 270.554688 13.578125 C 270.558594 6.257812 264.625 0.324219 257.300781 0.324219 C 257.300781 0.324219 257.300781 0.324219 257.296875 0.324219 Z M 257.296875 0.324219 " style=" stroke:none;fill-rule:nonzero;fill:rgb(47.843137%,28.235294%,17.647059%);fill-opacity:1;" />
</g>
</svg>