<svg id="Layer_1_1_" enable-background="new 0 0 64 64" height="512" viewBox="0 0 64 64" width="512" xmlns="http://www.w3.org/2000/svg"><g><path d="m20 5 10 35c2.464 0 4.728 1.353 5.896 3.522l3.094 5.745c-1.806 1.266-2.99 3.36-2.99 5.733 0 3.866 3.134 7 7 7s7-3.134 7-7-3.134-7-7-7c-.442 0-.872.046-1.291.124l-20.709-46.124zm19 50c0-2.209 1.791-4 4-4s4 1.791 4 4-1.791 4-4 4-4-1.791-4-4z" fill="#858bb5"/><path d="m21.714 11h.643c.391 0 .747.228.909.584l15.086 33c.304.663-.18 1.416-.909 1.416h-.213l-1.334-2.478c-1.168-2.169-3.432-3.522-5.896-3.522z" fill="#9da1bf"/><path d="m36 55c0 3.866 3.134 7 7 7s7-3.134 7-7-3.134-7-7-7-7 3.134-7 7zm3 0c0-2.209 1.791-4 4-4s4 1.791 4 4-1.791 4-4 4-4-1.791-4-4z" fill="#f6b940"/><path d="m43 2-20.709 46.124c-.419-.078-.849-.124-1.291-.124-3.866 0-7 3.134-7 7s3.134 7 7 7 7-3.134 7-7c0-2.373-1.184-4.467-2.99-5.733l3.094-5.745c1.168-2.169 3.432-3.522 5.896-3.522l10-35zm-22 57c-2.209 0-4-1.791-4-4s1.791-4 4-4 4 1.791 4 4-1.791 4-4 4z" fill="#c8cded"/><path d="m42.286 11h-.643c-.391 0-.747.228-.909.584l-15.086 33c-.304.663.18 1.416.909 1.416h.213l1.334-2.478c1.168-2.169 3.432-3.522 5.896-3.522z" fill="#e2e7f6"/><path d="m21 48c-3.866 0-7 3.134-7 7s3.134 7 7 7 7-3.134 7-7-3.134-7-7-7zm0 11c-2.209 0-4-1.791-4-4s1.791-4 4-4 4 1.791 4 4-1.791 4-4 4z" fill="#f6b940"/><g><path d="m31 35h2v2h-2z" fill="#c8cded"/></g><g fill="#f4a93c"><path d="m16 55c0 2.761 2.239 5 5 5h4.894c1.298-1.271 2.106-3.04 2.106-5s-.808-3.729-2.106-5h-4.894c-2.761 0-5 2.239-5 5zm9 0c0 2.209-1.791 4-4 4s-4-1.791-4-4 1.791-4 4-4 4 1.791 4 4z"/><path d="m43 50h-4.894c-1.298 1.271-2.106 3.04-2.106 5s.808 3.729 2.106 5h4.894c2.761 0 5-2.239 5-5s-2.239-5-5-5zm0 9c-2.209 0-4-1.791-4-4s1.791-4 4-4 4 1.791 4 4-1.791 4-4 4z"/></g></g></svg>