<svg id="Capa_1" enable-background="new 0 0 512 512" height="512" viewBox="0 0 512 512" width="512" xmlns="http://www.w3.org/2000/svg"><g><path d="m246.002 47.615c-10.578-21.156-42.054-22.228-48.256-22.228h-41.807c-8.284 0-15 6.716-15 15s6.716 15 15 15h41.763c9.613.059 20.016 3.213 21.467 5.644 3.706 7.412 12.717 10.412 20.125 6.708 7.409-3.704 10.413-12.714 6.708-20.124z" fill="#38336b"/><path d="m143.939 0h-31.743c-14.635 0-27 12.822-27 28v49.162c0 14.888 12.112 27 27 27h31.743c14.888 0 27-12.112 27-27v-49.162c0-15.178-12.364-28-27-28z" fill="#5e54ac"/><path d="m143.939 0h-16.418v104.162h16.418c14.888 0 27-12.112 27-27v-49.162c0-15.178-12.364-28-27-28z" fill="#453d81"/><path d="m171.811 74.162h-87.486c-14.888 0-27 12.112-27 27v36.743c0 14.888 12.112 27 27 27h87.485c14.888 0 27-12.112 27-27v-36.743c.001-14.888-12.112-27-26.999-27z" fill="#ffdd54"/><path d="m171.811 74.162h-43.778v90.743h43.778c14.888 0 27-12.112 27-27v-36.743c0-14.888-12.113-27-27-27z" fill="#ff9d21"/><path d="m177.973 134.909h-99.319c-42.639 0-77.906 31.963-78.617 71.25-.047 2.553-.025 44.764-.009 271.163 0 17.825 18.117 34.678 37.279 34.678h180.876c19.285 0 36.849-16.216 36.849-34.021 0-7.94 0-249.403 0-271.43 0-39.503-34.569-71.64-77.059-71.64z" fill="#ff405c"/><path d="m177.973 134.909h-49.941v377.091h90.151c19.285 0 36.849-16.216 36.849-34.021 0-7.94 0-249.403 0-271.43 0-39.503-34.569-71.64-77.059-71.64z" fill="#c30047"/><path d="m162.907 447h-69.678c-8.284 0-15-6.716-15-15s6.716-15 15-15h69.678c8.284 0 15 6.716 15 15s-6.716 15-15 15z" fill="#e1f3ff"/><path d="m162.907 417h-34.875v30h34.875c8.284 0 15-6.716 15-15s-6.716-15-15-15z" fill="#b1d5f1"/><path d="m183.811 353h-111.486c-8.284 0-15 6.716-15 15s6.716 15 15 15h111.485c8.284 0 15-6.716 15-15s-6.715-15-14.999-15z" fill="#e1f3ff"/><path d="m183.811 353h-55.778v30h55.778c8.284 0 15-6.716 15-15s-6.716-15-15-15z" fill="#b1d5f1"/><path d="m182.127 294.185c7.58-8.759 2.708-22.437-8.396-24.515-6.749-1.407-14.294 2.209-16.974 9.517h-56.447c-3.648-9.866-15.685-12.825-23.559-6.407-6.503 5.307-7.26 14.928-2.09 21.1.346.436.359.17 0 .61-5.888 7.223-3.92 18.207 4.53 22.73 8.002 4.278 17.979.546 21.121-8.033h56.445c2.376 6.556 9.229 10.973 16.975 9.523 11.534-2.405 15.769-16.026 8.395-24.525z" fill="#e1f3ff"/><path d="m179.132 271.9c-8.216-5.409-19.067-1.73-22.374 7.287h-28.726v30h28.725c2.376 6.556 9.229 10.973 16.975 9.523 11.534-2.405 15.769-16.026 8.396-24.525 5.954-6.88 4.427-17.393-2.996-22.285z" fill="#b1d5f1"/><g fill="#e1f3ff"><path d="m510.919 446.455c-5.958-31.153-36.911-51.346-68.059-45.394-14.686-18.115-38.182-26.984-61.861-22.451-25.434 4.876-45.587 24.572-50.837 50.228-23.348 4.473-38.707 27.11-34.239 50.475 3.854 20.093 19.135 32.681 39.3 32.679 1.554 0-16.623-.052 128.467-.052.947 0 1.893-.09 2.823-.268 31.058-5.953 50.344-34.228 44.406-65.217z"/><path d="m320.032 335c-8.272 0-15-6.768-15-15 0-8.568 7.335-15.769 16.48-14.93 8.453.886 14.272 8.396 13.45 16.41-.809 7.8-7.328 13.52-14.93 13.52z"/><circle cx="456.032" cy="248" r="23"/><path d="m352.032 239c-8.234 0-15-6.731-15-15 0-8.589 7.355-15.767 16.48-14.93 7.959.834 14.175 7.703 13.45 16.4-.799 7.864-7.4 13.53-14.93 13.53z"/><circle cx="304.032" cy="128" r="16"/><circle cx="432.032" cy="120" r="47"/><path d="m328.032 63c-8.234 0-15-6.731-15-15 0-8.589 7.355-15.767 16.48-14.93 7.959.834 14.175 7.703 13.45 16.4-.799 7.864-7.4 13.53-14.93 13.53z"/></g></g></svg>